<svg width="100" height="100" viewBox="0 0 100 100" fill="none" xmlns="http://www.w3.org/2000/svg">
<circle cx="50" cy="50" r="50" fill="#FFF9F0"/>
<path fill-rule="evenodd" clip-rule="evenodd" d="M37.5916 19.7043C35.9314 20.4797 34.2277 22.2619 33.3727 24.1171C32.8974 25.1486 32.767 25.9803 32.7659 27.9891C32.7636 32.0281 32.9851 32.3519 41.6967 41.0593L49.0858 48.4447L51.1436 46.4599C61.2499 36.7107 63.9009 33.9251 64.7936 32.1165C66.4823 28.6951 65.8928 24.4636 63.3185 21.5288C62.0379 20.0687 59.8404 19.0355 58.0157 19.0355C56.2277 19.0355 54.8083 19.5124 52.7681 20.7986C51.9174 21.335 50.7648 22.0493 50.2069 22.3861L49.1926 22.9986L47.0834 21.6832C42.5178 18.8354 40.3979 18.3934 37.5916 19.7043ZM22.6854 24.7851C21.2438 25.4991 20.9394 25.9596 20.0041 28.8418C18.3717 33.8709 18 36.5598 18 43.3381C18 50.1337 18.2482 51.9412 19.8616 56.8887C22.0636 63.6408 26.8365 70.7514 32.5788 75.8342L34.6101 77.632V79.3162V81H40.5731C45.6239 81 46.536 80.9363 46.536 80.583C46.536 80.3539 46.8006 77.188 47.124 73.5481C47.6093 68.0898 47.6542 66.6313 47.3813 65.2246C46.8648 62.5638 45.8079 60.637 43.8876 58.8551C36.5986 52.091 34.5747 49.0692 33.603 43.5001C33.1095 40.6727 33.0152 40.4675 32.016 40.0534C31.2749 39.7461 31.0693 39.7737 30.4037 40.27C29.7058 40.7904 29.6334 41.0292 29.5502 43.0834C29.3528 47.957 30.4358 54.0812 31.8025 55.8205C32.133 56.2412 32.3286 56.6599 32.2375 56.7511C32.1466 56.8424 31.4021 56.6758 30.5835 56.3808C28.2361 55.5351 26.9918 53.1344 26.1908 47.9058C25.6848 44.6024 25.7995 33.403 26.3813 29.3315C26.8507 26.0457 26.4875 24.9528 24.7631 24.4608C24.0558 24.259 23.6063 24.3289 22.6854 24.7851ZM75.4987 24.3556C73.4103 24.9542 73.0525 25.8453 73.5009 29.3341C74.0867 33.8953 74.1988 44.6112 73.6951 47.9058C72.8958 53.1327 71.651 55.5351 69.3033 56.3808C68.4847 56.6758 67.7401 56.8424 67.6493 56.7511C67.5581 56.6599 67.7538 56.2412 68.0843 55.8205C69.4509 54.0812 70.5339 47.957 70.3366 43.0834C70.2534 41.0292 70.181 40.7904 69.483 40.27C68.8118 39.7694 68.6158 39.7444 67.8514 40.0613C66.919 40.4479 66.8704 40.5679 65.9913 44.6638C65.0926 48.8498 62.7009 52.7419 59.0328 55.9868C55.5602 59.0589 54.26 60.5008 53.4859 62.1386C52.1988 64.8619 52.115 66.1962 52.765 73.616C53.0872 77.2932 53.3508 80.4591 53.3508 80.651C53.3508 80.9159 54.7895 81 59.3137 81H65.2766V79.3977V77.7952L68.6337 74.4946C72.7135 70.4837 75.214 67.1711 77.4438 62.8248C80.6848 56.5075 81.7272 52.3192 81.9401 44.7593C82.073 40.046 82.0131 38.8886 81.4685 35.6636C80.6044 30.5458 79.1373 26.0608 78.081 25.3078C77.0505 24.5733 76.0397 24.2004 75.4987 24.3556Z" fill="#678E7E"/>
</svg>
