<svg width="100" height="100" viewBox="0 0 100 100" fill="none" xmlns="http://www.w3.org/2000/svg">
<path fill-rule="evenodd" clip-rule="evenodd" d="M45.1493 0.118025C27.3502 1.84029 11.9735 12.879 4.39624 29.3746C3.25017 31.8697 2.40745 34.3077 1.59663 37.475C-1.77722 50.6549 0.235546 64.3416 7.25873 75.9768C14.8126 88.491 27.6329 97.1376 41.9833 99.3966C48.3585 100.4 54.9825 100.149 61.2678 98.6646C74.5287 95.533 86.4109 86.6712 93.3382 74.7461C95.0798 71.7479 97.0356 67.0607 98.2125 63.0641C99.15 59.8811 100.183 51.9373 99.9724 49.5279C99.9368 49.1199 99.9027 48.6352 99.8968 48.4507C99.8909 48.2662 99.8192 48.1568 99.7375 48.2076C99.6558 48.2582 99.4882 47.1766 99.3648 45.8037C98.7651 39.1264 97.2752 33.7855 94.3428 27.8019C91.8235 22.6611 88.7174 18.3623 84.5567 14.2586C76.8136 6.62119 67.3626 1.93893 56.5512 0.383744C54.0628 0.0258674 47.6471 -0.123588 45.1493 0.118025ZM37.8343 20.3229C37.897 20.4249 38.201 20.5083 38.5101 20.5083C39.7061 20.5083 42.425 21.3707 44.4272 22.3852C46.508 23.4396 47.7315 24.5008 52.883 29.7206C57.3432 34.2398 58.0117 34.9923 58.2768 35.7928C59.443 39.313 56.6034 43.1233 52.8096 43.1287C51.9066 43.13 51.3412 43.0225 50.7812 42.7425C50.2772 42.4907 47.5318 39.8741 42.957 35.2855L35.9089 28.2164L35.3503 28.7547C35.0429 29.0506 34.7916 29.3803 34.7916 29.4873C34.7916 29.5941 35.8069 30.705 37.0478 31.9557L39.3038 34.2298L31.4421 42.1571C26.5449 47.0949 23.4408 50.3654 23.2103 50.8301C23.0069 51.2405 22.7818 51.9707 22.7099 52.4526C22.638 52.9347 22.5157 53.3291 22.4381 53.3291C21.9527 53.3291 19.2248 49.422 18.4529 47.6213C18.2029 47.0381 17.9246 46.3941 17.8344 46.1902C17.5482 45.5434 17.0863 43.8246 16.8352 42.4712C15.0203 32.6969 22.0729 22.4625 31.8412 20.6954C32.5004 20.5762 33.2472 20.4108 33.5008 20.3277C34.1753 20.107 37.6991 20.103 37.8343 20.3229ZM66.2193 20.3084C66.5307 20.4024 67.3249 20.5765 67.9842 20.6952C73.4656 21.6822 78.6419 25.6387 81.2372 30.8254C84.4958 37.3376 83.8606 44.7149 79.507 50.9186C78.3832 52.5198 52.8858 78.2352 51.8948 78.7668C51.0633 79.2129 49.3539 79.204 48.4762 78.7492C46.7299 77.8439 45.8123 75.9494 46.2464 74.1452C46.4457 73.317 46.9707 72.7461 54.7745 64.8711L63.0901 56.4796L62.3092 55.6941L61.5282 54.9088L53.3693 63.0944C48.8819 67.5964 44.922 71.4251 44.5692 71.6024C42.8006 72.4923 40.3849 71.5629 39.3847 69.6079C38.9469 68.7518 38.9182 67.0781 39.3272 66.2535C39.4893 65.9272 43.2848 61.9683 47.7622 57.4557L55.9026 49.2514L55.0293 48.3734L54.1562 47.4952L45.8108 55.8552C38.1509 63.5286 37.3945 64.2344 36.6002 64.4487C33.4777 65.2919 30.6005 61.7496 32.0213 58.8115C32.2581 58.3218 35.0606 55.3707 40.0174 50.3918L47.6489 42.7262L48.2737 43.2609C49.7443 44.5202 50.9453 44.9784 52.7842 44.9821C56.4758 44.9899 59.4954 42.3926 60.2405 38.5683C60.4117 37.6901 60.4117 37.1917 60.2404 36.3432C59.8094 34.2078 59.5463 33.8469 55.2462 29.4955L51.1841 25.3849L51.8797 24.7707C54.3243 22.6125 59.0277 20.5083 61.4074 20.5083C61.7672 20.5083 62.1128 20.4249 62.1755 20.3229C62.3188 20.0898 65.4582 20.0787 66.2193 20.3084ZM43.4101 38.3534C44.8567 39.8053 46.0402 41.0783 46.0402 41.1821C46.0402 41.2858 42.6588 44.7651 38.5258 48.9139C30.8598 56.6092 29.9309 57.4086 28.6541 57.4086C27.1464 57.4086 25.4381 56.2999 24.8128 54.9157C24.3966 53.9943 24.3712 52.804 24.7481 51.8861C24.9415 51.4152 27.4677 48.7444 32.7228 43.4551C36.953 39.1971 40.4965 35.7134 40.5972 35.7134C40.6979 35.7134 41.9636 36.9015 43.4101 38.3534Z" fill="#FFF9F0"/>
</svg>
