<svg width="100" height="100" viewBox="0 0 100 100" fill="none" xmlns="http://www.w3.org/2000/svg">
<circle cx="50" cy="50" r="50" fill="#FFF9F0"/>
<path fill-rule="evenodd" clip-rule="evenodd" d="M28.7835 23.4702C24.2042 24.5513 18.9986 28.4283 16.6155 32.5336C13.1185 38.5565 13.1295 48.2596 16.6406 55.2459C20.1388 62.2065 24.5639 66.7916 42.3343 81.8677L48.3722 86.9902V78.8104C48.3722 72.6161 48.2496 70.5956 47.8664 70.4853C43.5619 69.2433 40.6645 67.0713 39.0971 63.9123C37.819 61.3368 37.5176 58.4131 38.4502 57.6341C39.5017 56.7558 40.3668 57.5861 40.9049 59.9906C41.5361 62.8116 43.1476 65.0362 45.4558 66.2728C47.9316 67.5995 49.624 67.8922 51.8748 67.3849C55.5219 66.5623 58.5936 63.3654 59.118 59.848C59.423 57.8015 60.1096 57.0363 61.3 57.4167C62.3523 57.7526 62.4163 59.8896 61.4586 62.718C60.246 66.2997 56.857 69.1167 52.1147 70.4853C51.7316 70.5956 51.609 72.6174 51.609 78.8153V87L55.3515 83.8283C65.5616 75.1758 73.1487 68.411 75.9234 65.4857C82.9097 58.1211 86 51.349 86 43.4021C86 37.0832 83.784 31.6419 79.7594 28.0785C71.9296 21.1451 60.424 21.3316 53.0093 28.5117C51.853 29.6315 50.7007 30.9142 50.4486 31.3621L49.9906 32.1765L49.5297 31.3621C48.6712 29.8441 44.9379 26.481 42.8773 25.3694C38.9151 23.2316 33.1086 22.4494 28.7835 23.4702ZM53.6732 41.4435C55.1415 42.4257 56.8688 45.3864 56.8688 46.922C56.8688 47.7567 56.6766 47.8536 55.0198 47.8536C53.3342 47.8536 53.1825 47.9343 53.3002 48.7698C53.4078 49.5313 53.7198 49.7072 55.1492 49.811C56.52 49.9112 56.8688 50.092 56.8688 50.704C56.8688 51.3156 56.52 51.4968 55.1529 51.597C53.8517 51.6919 53.4017 51.9073 53.2921 52.4875C53.11 53.4538 53.8707 53.9473 55.5538 53.9555C56.5839 53.9604 56.8688 54.133 56.8688 54.7528C56.8688 55.3921 56.5394 55.5676 55.1492 55.669C53.7408 55.7712 53.4297 55.9414 53.4297 56.6084C53.4297 57.2754 53.7408 57.4456 55.1492 57.5478C56.6147 57.6549 56.8676 57.8051 56.8599 58.5658C56.8445 60.1315 55.3896 62.7648 53.9828 63.7747C52.8802 64.5658 52.1192 64.7523 49.9906 64.7523C47.862 64.7523 47.1009 64.5658 45.9984 63.7747C44.5916 62.7648 43.1366 60.1315 43.1213 58.5658C43.1136 57.8051 43.3665 57.6549 44.8319 57.5478C46.2403 57.4456 46.5515 57.2754 46.5515 56.6084C46.5515 55.9414 46.2403 55.7712 44.8319 55.669C43.4417 55.5676 43.1124 55.3921 43.1124 54.7528C43.1124 54.133 43.3972 53.9604 44.4273 53.9555C46.1105 53.9473 46.8711 53.4538 46.689 52.4875C46.5794 51.9073 46.1295 51.6919 44.8283 51.597C43.4611 51.4968 43.1124 51.3156 43.1124 50.704C43.1124 50.092 43.4611 49.9112 44.8319 49.811C46.2614 49.7072 46.5733 49.5313 46.681 48.7698C46.7987 47.9343 46.647 47.8536 44.9614 47.8536C43.3046 47.8536 43.1124 47.7567 43.1124 46.922C43.1124 45.3864 44.8396 42.4257 46.3079 41.4435C48.2257 40.1609 51.7554 40.1609 53.6732 41.4435Z" fill="#5B8277"/>
</svg>
