<svg width="499" height="250" viewBox="0 0 499 250" fill="none" xmlns="http://www.w3.org/2000/svg">
<path fill-rule="evenodd" clip-rule="evenodd" d="M10.6983 91.8275C7.05368 94.6937 6.82768 100.373 10.2632 102.779C15.9809 106.785 25.8692 103.143 25.8692 97.0309C25.8692 90.6298 16.3654 87.3696 10.6983 91.8275ZM454.208 93.7644C452.414 95.7467 452.402 96.167 454.003 100.863C454.938 103.609 455.704 106.694 455.704 107.718C455.704 109.992 457.784 111.464 458.763 109.881C460.508 107.056 462.336 95.6231 461.305 93.9777C459.732 91.4663 456.379 91.3659 454.208 93.7644ZM15.3082 112.383C12.1135 113.75 8.07494 115.386 6.33342 116.019L3.16827 117.17L5.80537 118.48C8.39282 119.768 8.45408 120.079 8.97157 134.854C9.38556 146.677 9.84074 150.132 11.0838 150.917C12.8485 152.03 25.1384 152.326 26.184 151.282C26.5504 150.914 26.2896 149.608 25.6021 148.378C24.8533 147.034 24.1288 138.998 23.7919 128.272C23.4592 117.705 22.797 110.3 22.1729 110.151C21.592 110.013 18.5029 111.017 15.3082 112.383ZM40.6336 113.077C32.3432 116.351 29.4516 118.153 32.4857 118.153C35.5928 118.153 36.4303 121.942 36.4303 136C36.4303 152.031 36.3754 151.948 47.0452 151.948C53.347 151.948 53.5466 151.866 52.7799 149.572C52.3426 148.266 51.766 142.514 51.4988 136.791C50.9137 124.309 52.5676 118.625 57.658 115.618C60.6975 113.823 61.0544 113.809 62.6734 115.426C64.1108 116.861 64.4762 120.034 64.755 133.503C65.1468 152.404 65.0697 152.269 75.2696 151.736C80.6621 151.454 81.2725 151.192 80.9219 149.308C80.7054 148.146 80.2259 140.752 79.8552 132.876C79.0769 116.327 78.138 114.052 70.9554 111.309C65.0645 109.059 59.108 110.423 54.44 115.091L51.2158 118.316V114.651C51.2158 112.635 50.6117 110.755 49.8745 110.472C49.1363 110.189 44.9784 111.361 40.6336 113.077ZM120.391 111.224C114.648 113.348 111.413 117.293 111.418 122.173C111.424 128.474 114.451 132.086 123.81 136.955C133.342 141.913 134.955 143.416 134.465 146.874C134.184 148.852 133.372 149.369 130.132 149.638C126.509 149.936 125.62 149.431 120.419 144.104C117.27 140.878 114.478 138.591 114.212 139.022C113.948 139.451 113.395 142.053 112.983 144.802C112.273 149.545 112.38 149.854 115.062 150.874C116.616 151.465 121.064 151.938 124.948 151.925C137.163 151.885 145.209 146.401 145.209 138.113C145.209 132.331 140.891 127.934 129.969 122.595C122.215 118.805 120.919 117.794 120.919 115.541C120.919 108.348 136.189 114.328 139.185 122.694C139.891 124.662 141.016 123.002 141.657 119.052C142.599 113.248 139.811 110.82 131.48 110.186C126.86 109.834 123.234 110.173 120.391 111.224ZM161.535 112.204C148.676 118.192 144.64 132.34 152.639 143.383C156.943 149.325 162.519 151.953 170.777 151.931C178.914 151.909 184.401 149.142 188.846 142.817C194.919 134.177 193.398 122.654 185.266 115.693C177.882 109.373 170.079 108.226 161.535 112.204ZM208.45 111.854C205.767 112.916 201.845 114.506 199.733 115.388L195.894 116.992L198.538 119.637C201.089 122.187 201.183 122.768 201.183 136.021C201.183 152.029 201.13 151.948 211.798 151.948C218.112 151.948 218.299 151.87 217.492 149.572C216.079 145.545 215.721 125.309 216.987 121.053C218.36 116.441 222.755 112.9 224.696 114.841C225.488 115.633 226.074 122.146 226.352 133.216C226.631 144.364 227.199 150.636 227.975 151.14C229.437 152.09 241.759 152.208 242.685 151.282C243.052 150.914 242.84 149.656 242.211 148.483C241.584 147.311 240.843 141.551 240.564 135.684C239.974 123.28 241.415 117.376 245.539 115.296C250.107 112.994 250.82 115.47 250.82 133.631C250.82 152.295 250.624 151.948 261.136 151.948C268.039 151.948 269.386 151.319 267.457 148.994C266.617 147.982 265.969 141.778 265.619 131.369C265.016 113.487 264.653 112.494 258.09 110.728C252.94 109.341 246.311 110.948 242.832 114.428L240.367 116.892L238.731 114.395C235.058 108.79 222.541 109.026 218.008 114.788L215.968 117.382V114.728C215.968 110.438 213.966 109.672 208.45 111.854ZM286.246 111.322C273.832 116.047 268.742 130.243 275.392 141.59C279.662 148.877 283.658 151.297 292.219 151.78C298.42 152.131 299.953 151.825 304.069 149.413C310.517 145.634 311.094 144.35 305.974 145.168C303.195 145.613 300.823 145.304 298.768 144.231C293.257 141.355 286.54 132.614 288.477 130.841C288.967 130.393 293.536 128.944 298.629 127.621C306.315 125.624 307.993 124.813 308.485 122.854C309.244 119.826 306.62 114.75 303.103 112.446C299.263 109.93 291.3 109.399 286.246 111.322ZM328.6 110.733C324.032 112.186 319.035 115.958 316.203 120.093C314.091 123.175 313.658 125.105 313.658 131.443C313.658 138.4 313.948 139.44 316.924 143.137C322.603 150.194 326.148 151.948 334.725 151.948C341.059 151.948 342.957 151.508 346.493 149.215C360.271 140.282 360.327 122.007 346.604 113.522C341.238 110.205 333.855 109.061 328.6 110.733ZM371.216 112.383C368.021 113.75 363.981 115.41 362.239 116.072C359.127 117.255 359.113 117.293 361.462 118.214C365.073 119.63 365.935 123.375 365.935 137.647C365.935 152.495 365.575 151.948 375.35 151.948C382.275 151.948 383.203 151.447 381.651 148.545C379.865 145.208 379.294 131.874 380.656 125.319C381.596 120.799 382.709 118.612 385.093 116.606C388.815 113.473 389.513 113.367 391.735 115.588C393.099 116.953 393.394 120.134 393.394 133.505C393.394 152.312 393.191 151.948 403.71 151.948C410.601 151.948 411.96 151.319 410.046 149.012C409.237 148.039 408.558 141.884 408.208 132.367C407.686 118.207 407.491 117.096 405.079 114.529C399.495 108.586 389.246 108.831 383.31 115.05L380.192 118.317L379.664 114.357C379.374 112.18 378.661 110.285 378.08 110.148C377.499 110.01 374.41 111.017 371.216 112.383ZM426.459 112.379C413.669 118.754 410.61 134.46 420.065 145.228C424.521 150.303 428.217 151.948 435.162 151.948C441.429 151.948 446.897 149.982 449.921 146.639C451.658 144.719 451.594 144.67 448.078 145.24C442.728 146.109 436.267 142.453 432.414 136.376C430.7 133.675 429.655 131.148 430.091 130.762C430.528 130.376 434.043 129.29 437.903 128.348C449.293 125.566 450.423 124.948 450.423 121.49C450.423 115.405 443.133 109.704 435.351 109.704C433.414 109.704 429.412 110.908 426.459 112.379ZM476.298 110.623C468.105 112.761 464.626 116.938 465.516 123.574C466.266 129.163 470.13 133.212 478.999 137.703C486.983 141.745 488.741 143.486 488.26 146.874C487.993 148.76 487.141 149.383 484.475 149.64C481.53 149.924 480.132 149.11 474.755 143.981C468.527 138.04 468.469 138.013 467.794 140.702C467.42 142.193 467.041 144.944 466.954 146.817C466.759 150.937 468.594 151.686 479.237 151.843C491.49 152.023 499.011 146.72 499 137.905C498.994 132.037 495.788 128.402 486.727 123.99C477.102 119.303 474.714 117.495 474.714 114.892C474.714 109.596 484.448 111.993 490.4 118.755C492.664 121.328 494.815 123.434 495.177 123.434C495.539 123.434 495.836 121.369 495.836 118.845C495.836 115.743 495.211 113.69 493.907 112.511C491.685 110.499 481.116 109.366 476.298 110.623ZM293.532 114.164C295.254 116.623 295.736 124.086 294.315 126.322C293.86 127.039 292.01 127.922 290.205 128.282C286.134 129.096 284.615 126.811 284.615 119.866C284.615 116.143 285.127 114.746 286.963 113.461C290.139 111.234 291.589 111.39 293.532 114.164ZM434.587 112.876C437.034 114.185 438.466 122.235 436.805 125.339C435.394 127.975 429.412 129.545 428.207 127.596C426.917 125.509 425.978 117.674 426.771 115.608C427.163 114.587 428.486 113.347 429.712 112.851C432.64 111.668 432.328 111.666 434.587 112.876ZM170.94 116.305C176.961 124.241 180.577 144.492 176.671 148.398C174.077 150.993 171.08 148.605 167.53 141.112C164.743 135.229 161.864 122.553 162.678 119.746C162.848 119.159 163.273 117.374 163.623 115.777C164.499 111.78 167.682 112.011 170.94 116.305ZM334.506 115.777C338.581 120.062 341.78 129.185 342.375 138.219C343.203 150.788 339.491 153.422 333.45 144.55C326.798 134.78 324.685 112.872 330.395 112.872C331.137 112.872 332.988 114.18 334.506 115.777Z" fill="#497468"/>
<path d="M7.07552 192.761C9.31763 191.824 13.3467 190.167 16.0292 189.078C18.7127 187.991 21.3826 187.23 21.9634 187.39C22.6161 187.568 23.2212 198.332 23.5476 215.579C23.9088 234.648 24.4822 244.188 25.3588 245.717C26.0643 246.948 26.3409 248.254 25.9745 248.622C24.9289 249.667 12.6391 249.369 10.8743 248.256C9.56368 247.429 9.19933 242.917 8.7621 222.163L8.23405 197.07L5.61702 195.767L3 194.463L7.07552 192.761Z" fill="#497468"/>
<path d="M37.7575 199.171C34.3019 195.716 34.4899 193.015 38.4144 189.712C42.6483 186.149 47.631 186.093 51.3802 189.567C54.8664 192.798 54.9297 195.824 51.5819 199.171C47.9795 202.773 41.3599 202.773 37.7575 199.171Z" fill="#497468"/>
<path d="M65.7918 207.045C65.7918 200.266 70.2263 194.123 77.9972 190.137C83.5185 187.305 94.3953 187.635 97.4306 190.726C102.577 195.967 99.7772 203.876 92.7752 203.876C88.5128 203.876 86.5558 201.733 86.7153 197.238C86.878 192.642 86.0119 190.146 84.2524 190.146C82.4169 190.146 80.5909 196.528 80.5835 202.966C80.5751 209.641 82.9366 212.374 89.3313 213.094C96.667 213.921 95.3775 215.493 87.3638 215.493H80.4209L80.7969 230.542C81.0028 238.82 81.3946 246.305 81.6671 247.176C82.06 248.435 80.9184 248.825 76.1162 249.076C65.777 249.616 65.7918 249.641 65.7918 231.297V215.493H62.6234C60.6348 215.493 59.4551 214.951 59.4551 214.036C59.4551 213.236 60.8809 211.99 62.6234 211.268C65.0599 210.259 65.7918 209.284 65.7918 207.045Z" fill="#497468"/>
<path d="M33.3324 215.493C30.2982 215.493 33.1898 213.691 41.4802 210.417C45.825 208.701 49.9829 207.529 50.7211 207.812C51.7255 208.196 52.0624 212.422 52.0624 224.616C52.0624 236.273 52.488 241.925 53.5568 244.484C54.3784 246.45 54.7745 248.336 54.4365 248.673C53.3867 249.724 41.4718 249.347 39.3195 248.195C37.4607 247.2 37.2769 245.865 37.2769 233.34C37.2769 219.282 36.4395 215.493 33.3324 215.493Z" fill="#497468"/>
<path fill-rule="evenodd" clip-rule="evenodd" d="M111.732 209.028C97.6428 215.492 94.1798 232.276 104.66 243.309C109.022 247.902 112.57 249.288 119.97 249.288C125.807 249.288 127.327 248.855 131.112 246.113C133.522 244.367 135.495 242.734 135.495 242.484C135.495 242.233 133.909 242.285 131.972 242.6C126.76 243.446 120.239 239.725 116.443 233.737C114.736 231.047 113.535 228.652 113.773 228.414C114.01 228.175 118.639 226.716 124.058 225.17C133.555 222.459 133.922 222.241 134.226 219.133C134.822 213.039 127.429 207.013 119.423 207.067C117.517 207.08 114.056 207.963 111.732 209.028ZM120.837 222.648C122.419 219.691 121.278 212.184 118.993 210.513C116.883 208.97 116.766 208.963 113.727 210.191C112.501 210.686 111.178 211.926 110.786 212.947C109.993 215.013 110.932 222.848 112.222 224.935C113.434 226.896 119.412 225.308 120.837 222.648Z" fill="#497468"/>
<path fill-rule="evenodd" clip-rule="evenodd" d="M155.78 0.896206C144.324 5.28076 141.786 6.84935 144.068 8.13165C146.152 9.30239 146.409 11.9234 146.409 31.9617C146.409 47.68 146.894 54.9625 148.016 56.0888C148.899 56.976 152.384 57.7018 155.759 57.7018H161.898L161.456 44.5965C160.999 31.0101 162.143 26.5005 166.785 23.5891C171.126 20.8673 172.47 24.5878 173.181 41.298L173.85 57.0297L181.718 57.4383C188.87 57.8093 189.49 57.6252 188.538 55.4221C187.962 54.0888 187.215 46.7928 186.876 39.2106C186.278 25.7747 186.157 25.3352 182.129 21.9332C178.745 19.0729 177.052 18.5675 172.781 19.1428C169.911 19.5299 166.14 21.1885 164.401 22.8284L161.24 25.8123L160.851 13.3025C160.471 1.01315 159.795 -0.640134 155.78 0.896206ZM2.92881 5.33318C5.71304 7.9381 5.85895 9.17067 5.85895 30.1471C5.85895 51.1236 5.71304 52.3562 2.92881 54.9611L0 57.7018L13.3028 57.9666C31.5971 58.3308 37.8777 57.8268 42.0581 55.656C49.9838 51.5403 50.7013 38.4686 43.3645 31.8273C41.1184 29.7936 38.377 28.131 37.2727 28.131C35.9997 28.131 36.772 26.7788 39.3836 24.4346C46.8582 17.7247 44.1342 6.74854 34.3157 4.01055C31.5489 3.23902 22.6956 2.60459 14.6413 2.60056L0 2.5925L2.92881 5.33318ZM27.6724 8.31177C29.454 10.3844 29.9747 12.8805 29.6803 17.9398L29.284 24.7706L24.2644 25.1873L19.2447 25.6053V14.6803C19.2447 3.98636 19.309 3.77399 22.2565 4.63557C23.9137 5.11812 26.3499 6.77274 27.6724 8.31177ZM125.102 13.5485C122.585 16.5903 118.52 20.2678 116.068 21.7208C111.418 24.4763 111.25 26.7868 115.701 26.7868C118.099 26.7868 118.299 27.8178 118.299 40.1327C118.299 54.9759 119.231 56.9988 126.723 58.4101C131.261 59.265 136.693 57.7354 141.524 54.2407C144.264 52.2567 144.155 52.2016 139.235 53.0914C132.408 54.324 131.731 53.0148 131.705 38.548L131.685 26.7868H135.622C140.545 26.7868 142.093 24.651 137.93 23.6026C134.361 22.7034 131.685 17.7032 131.685 11.9382C131.685 9.75536 131.233 7.97977 130.681 7.99321C130.13 8.00665 127.619 10.5067 125.102 13.5485ZM63.4445 21.0003C50.5487 27.7156 48.8353 46.6033 60.3859 54.7111C67.9368 60.0123 77.6294 59.554 84.835 53.5551L88.1814 50.7688L84.4883 51.5752C80.0268 52.5497 74.1063 49.7284 70.2284 44.778C66.0869 39.4902 66.7146 38.2294 74.461 36.275C83.8417 33.908 86.1735 32.5599 86.1735 29.5033C86.1735 21.1455 72.7838 16.1373 63.4445 21.0003ZM203.299 21.2235C194.365 26.764 190.975 34.3959 193.411 43.4809C195.11 49.8131 202.183 57.0942 207.849 58.3443C213.091 59.5002 221.678 57.0499 224.838 53.496C227.369 50.6505 227.367 50.6317 224.458 51.5403C220.373 52.8172 211.901 48.1854 208.91 43.0414C206.495 38.8867 206.498 38.8732 209.771 37.6245C211.575 36.935 215.194 35.9686 217.81 35.4753C224.928 34.1338 227.292 31.9268 226.217 27.6269C224.281 19.8847 211.302 16.2583 203.299 21.2235ZM72.9859 24.6712C75.1383 29.4146 73.4129 34.6433 69.3583 35.6648C65.182 36.7172 64.8353 36.3812 63.8568 30.3246C62.5343 22.1469 69.8001 17.6481 72.9859 24.6712ZM213.358 25.4427C214.674 31.0034 213.316 34.8059 209.689 35.7199C205.83 36.6931 204.019 34.6365 203.988 29.2493C203.955 23.2585 205.327 21.2262 209.106 21.6738C211.519 21.9587 212.803 23.0972 213.358 25.4427ZM27.3498 29.5154C33.8861 33.0276 37.1482 50.6989 31.9639 54.5055C28.6134 56.9666 23.9431 56.851 21.3476 54.246C19.7507 52.6411 19.2447 49.2499 19.2447 40.1327C19.2447 28.8998 19.4214 28.131 22.0102 28.131C23.5308 28.131 25.9336 28.7533 27.3498 29.5154Z" fill="#497468"/>
<path d="M253.944 8.34402C251.771 6.71762 253.779 5.42726 265.543 0.890823C268.731 -0.339056 269.604 -0.208675 270.221 1.58439C270.538 2.50915 270.972 15.5391 271.182 30.541L271.566 57.8187L264.204 57.4235L256.842 57.0297L256.489 33.5075C256.19 13.5565 255.803 9.73654 253.944 8.34402Z" fill="#FFB200"/>
<path d="M283.684 12.0605C280.975 9.8024 281.035 5.4528 283.821 2.36264C286.744 -0.88074 292.985 -0.766489 296.33 2.59249C299.63 5.90577 299.655 6.86816 296.539 10.7325C293.755 14.1856 287.064 14.8765 283.684 12.0605Z" fill="#FFB200"/>
<path d="M348.573 7.99051C346.167 6.49987 346.252 6.42729 354.558 2.93524C364.924 -1.42242 364.597 -1.76652 364.597 13.5283V27.1538L368.094 23.6429C374.915 16.7932 385.538 17.7852 389.676 25.6577C390.621 27.4548 391.338 33.8811 391.349 40.6529C391.36 47.1692 392.009 53.703 392.792 55.1721C394.145 57.7112 393.835 57.8214 386.434 57.4356L378.652 57.0297L377.93 41.9029C377.402 30.8595 376.653 26.2196 375.156 24.7155C370.123 19.6616 365.267 27.9401 365.267 41.5722C365.267 46.3775 365.738 52.0027 366.313 54.074L367.36 57.8389L359.621 57.4343L351.881 57.0297L351.212 33.119C350.678 14.0498 350.143 8.96232 348.573 7.99051Z" fill="#FFB200"/>
<path d="M399.846 21.7208C402.298 20.2678 406.364 16.5903 408.88 13.5485C411.397 10.5067 413.907 8.00664 414.459 7.9932C415.012 7.97976 415.463 10.2742 415.463 13.0915C415.463 18.5312 419.254 24.0986 422.957 24.0986C424.076 24.0986 424.619 24.7034 424.164 25.4427C423.709 26.182 421.566 26.7868 419.4 26.7868H415.463L415.483 38.5479C415.509 52.6223 416.309 54.3737 422.184 53.1936C425.849 52.457 426.256 52.6196 424.89 54.2729C422.468 57.2031 414.633 59.3712 410.09 58.3698C402.95 56.7945 402.078 54.8079 402.078 40.1327C402.078 27.8178 401.877 26.7868 399.479 26.7868C395.029 26.7868 395.196 24.4763 399.846 21.7208Z" fill="#FFB200"/>
<path d="M280.473 24.2652C282.2 23.6012 285.722 22.1334 288.299 21.0057C290.875 19.8766 293.586 19.1011 294.322 19.2812C295.073 19.4653 295.99 26.932 296.41 36.3032C296.823 45.485 297.652 54.0888 298.255 55.4221C299.251 57.6305 298.648 57.8093 291.482 57.4383L283.613 57.0297L283.26 43.5884C282.952 31.8636 282.551 29.8487 280.12 27.811L277.333 25.4749L280.473 24.2652Z" fill="#FFB200"/>
<path fill-rule="evenodd" clip-rule="evenodd" d="M329.207 17.2448C329.707 16.433 332.002 14.945 334.305 13.9369C341.302 10.8804 345.048 12.2272 344.301 17.5298C343.825 20.9062 343.14 21.0205 333.81 19.2731L329.125 18.3954L334.412 23.0515C338.748 26.8688 339.7 28.5866 339.7 32.5867C339.7 38.0627 335.798 43.2027 329.997 45.3707C328.045 46.1006 325.243 47.1692 323.771 47.7458C321.926 48.469 324.167 49.0617 330.979 49.6518C342.025 50.6075 344.519 52.4718 344.519 59.7731C344.519 65.3028 338.189 74.0585 332.09 76.9645C329.46 78.2186 324.12 79.2078 319.991 79.2078C313.991 79.2078 311.823 78.5519 308.48 75.7279C303.291 71.3433 303.115 66.5475 307.958 61.4721C311.402 57.8617 311.434 57.7018 308.706 57.7018C303.162 57.7018 304.573 55.406 312.441 51.6304L320.408 47.8063L315.397 46.0885C305.804 42.8008 301.391 32.9886 306.322 25.9172C309.087 21.9547 316.53 18.722 322.89 18.722C325.864 18.722 328.707 18.058 329.207 17.2448ZM323.993 26.5852C327.297 31.4805 329.353 41.2093 327.48 43.0898C326.791 43.782 325.25 43.9728 324.056 43.5118C321.151 42.3935 316.409 32.3139 316.409 27.2586C316.409 19.9828 319.36 19.7207 323.993 26.5852ZM335.149 72.4872C336.926 69.1511 335.422 66.0233 329.722 61.2073C326.817 58.7529 324.022 57.7018 320.4 57.7018C311.658 57.7018 312.05 61.5003 321.696 70.2506C327.799 75.787 332.935 76.6406 335.149 72.4872Z" fill="#FFB200"/>
</svg>
