<svg width="435" height="136" viewBox="0 0 435 136" fill="none" xmlns="http://www.w3.org/2000/svg">
<path fill-rule="evenodd" clip-rule="evenodd" d="M11.5012 0.198265C9.7178 0.489641 6.3999 2.46609 4.12938 4.59115C0.583846 7.90863 0 9.20988 0 13.7853C0 20.3957 3.54082 24.9781 12.5486 30.0217C20.0348 34.2121 24.9662 39.5774 23.9648 42.4385C21.8052 48.6148 13.386 49.2069 7.75395 43.5771C5.66154 41.486 3.36508 38.7255 2.65267 37.443C0.669949 33.8774 -0.375077 36.1371 0.518974 42.0559C1.19718 46.5388 1.81877 47.5007 4.49503 48.2005C10.1342 49.6749 21.0409 48.9916 25.7942 46.8642C31.0606 44.5086 33.0256 41.1045 33.0256 34.3373C33.0256 30.5166 32.2955 28.9205 29.269 26.1144C27.2025 24.2 23.6133 21.6712 21.2921 20.4963C14.6657 17.1426 10.6154 12.4981 10.6154 8.25383C10.6154 3.71585 12.4424 1.74291 16.6437 1.74291C19.6868 1.74291 22.8726 4.54785 26.7637 10.6551C27.9715 12.5496 28.1791 12.0967 28.2381 7.42651C28.2841 3.85042 27.7545 1.7827 26.6894 1.37664C23.9636 0.339857 14.9299 -0.362255 11.5012 0.198265ZM249.03 9.33626C247.494 11.5725 243.949 14.8385 241.151 16.5949C235.973 19.8457 235.388 21.6361 239.506 21.6361C241.617 21.6361 241.795 22.5325 241.795 33.1566C241.795 45.9257 242.746 47.8612 249.69 49.2396C252.927 49.8821 264.205 46.3013 264.205 44.6314C264.205 44.3354 262.16 44.3646 259.659 44.697C254.141 45.4318 253.63 44.2511 253.606 30.705L253.59 21.6361H257.059C258.967 21.6361 260.855 21.1095 261.256 20.4659C261.657 19.8223 261.24 19.2957 260.329 19.2957C257.54 19.2957 254.603 15.0456 253.925 10.0255C253.57 7.40077 252.95 5.25698 252.549 5.26166C252.148 5.26634 250.564 7.09886 249.03 9.33626ZM42.4851 17.7312C37.0961 20.1698 36.3601 20.845 38.0621 21.7894C39.685 22.6904 40.1026 24.5534 40.1026 30.8806C40.1026 35.2582 40.6699 40.455 41.3646 42.4303C42.8343 46.6137 49.3674 50.2507 53.4025 49.1308C57.5307 47.9852 61.3333 45.9093 61.3333 44.8011C61.3333 44.2429 60.181 44.3986 58.7727 45.1463C54.4168 47.4598 53.0769 43.9644 53.0769 30.2849C53.0769 17.7019 52.5143 14.5529 50.2969 14.7109C49.555 14.7636 46.0401 16.1233 42.4851 17.7312ZM70.7692 15.4786C69.7962 15.8472 66.6127 17.1566 63.6935 18.39C59.1112 20.3266 58.6771 20.7924 60.5112 21.8116C62.3619 22.839 62.6013 24.4715 62.3748 34.5351C62.0292 49.8727 62.5246 50.4321 72.8546 46.3809C78.4383 44.1914 79.9916 43.1769 78.1564 42.9159C75.6747 42.5625 75.5462 41.9494 75.2289 28.9685C74.9022 15.5757 74.4138 14.1001 70.7692 15.4786ZM88.6585 17.5709C81.6229 20.3688 80.0306 21.6361 83.5466 21.6361C86.0802 21.6361 86.1026 21.8315 86.1026 44.4547C86.1026 70.2199 85.4173 68.797 95.9053 64.816C102.265 62.4007 102.339 62.3188 100.138 60.1352C98.7337 58.7416 97.8974 56.2748 97.8986 53.5237V49.1355L104.011 49.0454C109.669 48.9623 110.453 48.5867 114.566 43.9878C122.272 35.3729 121.71 22.8718 113.368 17.3017C110.109 15.1252 108.022 14.6887 101.997 14.918C97.9387 15.0737 91.9363 16.2661 88.6585 17.5709ZM129.154 18.0822C124.259 20.4015 122.895 21.4664 124.731 21.5355L127.385 21.6361V43.9059C127.385 69.54 127.156 69.0626 137.467 64.9096C143.47 62.4932 143.841 62.1292 142.171 60.2991C141.174 59.2073 140.359 56.2479 140.359 53.7238V49.1355H145.424C148.277 49.1355 151.876 48.2333 153.665 47.0701C162.105 41.5843 164.193 26.2654 157.451 19.284C153.599 15.2948 147.307 13.7081 142.493 15.5113C140.621 16.2123 139.179 16.2872 139.179 15.6833C139.179 13.9316 136.628 14.5424 129.154 18.0822ZM173.822 17.4644C162.42 24.4071 162.394 38.3335 173.769 46.6875C178.776 50.3654 188.351 49.9991 193.735 45.9245C207.255 35.6936 201.429 16.4159 184.382 14.9789C179.815 14.5939 177.732 15.0842 173.822 17.4644ZM215.846 15.4739C205.622 19.3694 203.512 20.659 205.527 21.7777C207.262 22.7407 207.59 24.6645 207.59 33.8856C207.59 39.9156 207.912 45.6811 208.306 46.6992C208.831 48.0554 210.645 48.5504 215.088 48.5504H221.154L220.73 34.3677C220.386 22.8051 220.603 20.2822 221.91 20.7105C222.792 20.9983 223.678 22.3394 223.878 23.6909C224.804 29.9093 232.437 29.6612 234.03 23.3609C235.725 16.6616 229.095 12.3296 223.305 16.3539C221.093 17.8915 220.726 17.8915 220.131 16.3539C219.422 14.5214 218.723 14.3774 215.846 15.4739ZM287.795 17.7885C283.781 19.6327 281.982 20.9925 283.077 21.3552C286.85 22.605 289.392 26.1366 294.985 37.8993C300.328 49.1378 300.64 50.2635 298.922 52.1464C296.564 54.7313 291.368 56.0735 289.788 54.5066C288.971 53.6957 286.76 54.3299 282.883 56.4901C279.747 58.2372 277.182 60.0147 277.181 60.4407C277.18 60.8666 278.846 62.6055 280.883 64.3058C287.815 70.0924 289.4 68.9854 304.851 47.5616C318.709 28.3483 320.787 23.9858 319.156 17.5369C318.321 14.2382 317.733 14.251 309.286 17.7522L305.214 19.4408L307.806 22.1791C311.011 25.5632 312.183 33.1028 309.962 36.0446C308.513 37.9625 307.811 37.0381 302.633 26.3906C299.482 19.9136 296.315 14.6583 295.594 14.7109C294.872 14.7636 291.363 16.1479 287.795 17.7885ZM330.787 16.2614C325.997 18.3315 321.089 24.2924 320.169 29.1569C319.194 34.3127 322.868 42.6573 327.578 45.9842C342.681 56.6539 362.4 40.3287 354.139 23.994C350.237 16.2766 339.204 12.6233 330.787 16.2614ZM368 16.6031C365.729 17.5849 362.589 18.8768 361.021 19.4724L358.17 20.5572L360.726 22.3323C362.973 23.8946 363.282 25.204 363.282 33.1437C363.282 43.5841 364.745 46.5189 370.959 48.5539C374.439 49.6925 375.779 49.5685 379.442 47.7664C381.837 46.588 384.034 44.8351 384.326 43.8696C384.715 42.5848 384.17 42.7205 382.289 44.3763C379.864 46.5131 379.609 46.5271 377.694 44.6326C376.09 43.0447 375.544 39.7822 375.077 29.0071C374.748 21.3974 373.967 15.2609 373.308 15.1018C372.659 14.945 370.271 15.6202 368 16.6031ZM390.41 16.6031C388.14 17.5849 384.999 18.8768 383.431 19.4724L380.58 20.5572L383.156 22.3476C385.543 24.0057 385.716 24.9969 385.494 35.7766C385.363 42.1776 385.752 47.8892 386.359 48.4685C387.018 49.098 390.508 48.3023 395.04 46.4897C400.928 44.1341 402.111 43.2834 400.347 42.6725C398.338 41.9751 398.01 40.3661 397.487 28.6373C397.159 21.2757 396.374 15.2609 395.718 15.1029C395.069 14.945 392.681 15.6202 390.41 16.6031ZM411.051 17.2537C403.734 20.2939 403.657 20.3571 405.778 21.6536C407.066 22.44 407.665 25.9658 408.103 35.339L408.692 47.9653L415.625 48.321C421.911 48.6428 422.476 48.479 421.687 46.5658C420.333 43.2857 419.507 29.3348 420.389 24.6657C421.346 19.607 422.892 19.229 423.819 23.829C424.666 28.0323 427.642 29.2599 431.269 26.9019C434.353 24.8962 435.155 18.5187 432.636 16.0192C430.421 13.8216 425.623 14.3681 422.627 17.159L419.897 19.7041V17.159C419.897 14.0755 418.671 14.0896 411.051 17.2537ZM181.553 18.0787C185.905 20.3898 191.203 37.945 189.323 43.8228C188.772 45.5418 187.727 46.2311 186.042 45.9853C181.038 45.2563 175.327 28.1025 177.383 19.9791C178.235 16.6101 178.532 16.4744 181.553 18.0787ZM338.43 20.0423C343.745 26.7463 346.484 44.3237 342.452 45.859C337.109 47.8928 328.931 26.1261 332.532 19.4513C334.293 16.1854 335.465 16.3024 338.43 20.0423ZM102.599 20.7187C105.491 23.7986 108.513 33.2303 108.513 39.1772C108.513 44.9837 106.311 47.6786 101.968 47.1883L98.4872 46.7951L98.1557 32.4603C97.9505 23.5423 98.2666 18.1255 98.9944 18.1255C99.6384 18.1255 101.26 19.2922 102.599 20.7187ZM147.667 26.4514C150.002 32.4451 150.422 43.9492 148.38 45.976C147.601 46.7483 145.478 47.3802 143.662 47.3802H140.359V32.6101V17.84L143.013 19.5801C144.472 20.5373 146.567 23.6301 147.667 26.4514Z" fill="#497468"/>
<path d="M325.71 78.5058C320.643 75.6493 319.927 73.2715 323.118 69.9026C326.494 66.337 331.407 66.014 334.284 69.1689C339.095 74.4417 332.07 82.0912 325.71 78.5058Z" fill="#497468"/>
<path d="M343.611 85.9177C345.772 84.6528 349.354 81.4511 351.571 78.803C353.789 76.1549 356 73.9783 356.488 73.9666C356.975 73.9549 357.372 75.5007 357.372 77.4011C357.372 86.4759 362.47 89.6986 371.435 86.291C374.404 85.163 377.63 84.1613 378.603 84.0653C379.748 83.953 382.469 88.1668 386.324 96.0235L392.276 108.155L393.6 103.875C395.089 99.0648 394.002 93.6328 390.864 90.1924C388.997 88.1458 389.175 87.9234 394.473 85.6697C397.539 84.3661 400.53 83.5961 401.119 83.9577C401.71 84.3193 402.193 87.4132 402.193 90.8337C402.193 96.6987 401.708 97.7121 393.641 108.72C388.939 115.138 382.572 123.894 379.493 128.178C372.989 137.232 369.973 138.057 363.49 132.553L359.583 129.236L365.353 125.713C369.625 123.106 371.64 122.479 373.117 123.298C375.615 124.686 379.213 123.602 382.013 120.621C384.105 118.392 384.007 118.009 378.336 106.377C370.853 91.0244 370.191 90.3282 363.087 90.3282H357.372L357.39 100.567C357.412 113.162 358.009 114.302 364.025 113.229C368.36 112.454 368.456 112.502 366.041 114.229C361.785 117.272 356.998 118.603 353 117.859C346.398 116.63 345.577 114.869 345.577 101.947C345.577 91.2257 345.4 90.3282 343.288 90.3282C339.366 90.3282 339.514 88.3166 343.611 85.9177Z" fill="#497468"/>
<path d="M32.2855 97.0848C33.0698 92.9365 38.8788 86.0792 43.0211 84.4117C46.4829 83.018 51.6609 83.1128 54.6167 84.6235C62.0192 88.4056 64.8617 94.8428 60.2193 97.3083C54.6108 100.286 49.986 97.3271 49.3232 90.3375C49.0495 87.4483 48.2864 86.1295 46.7188 85.8347C41.9749 84.9418 40.9512 93.5403 44.8494 101.53C47.8205 107.619 55.3044 113.081 59.5682 112.273C62.4249 111.731 62.4815 111.813 60.6309 113.842C59.5564 115.02 56.8483 116.582 54.6143 117.314C42.7204 121.209 29.917 109.609 32.2855 97.0848Z" fill="#497468"/>
<path d="M106.202 90.3609C104.915 89.5757 106.084 88.5963 110.919 86.408C118.927 82.7828 119.947 82.7149 120.912 85.7328C121.64 88.0065 121.824 88.0369 123.849 86.2185C125.037 85.1524 128.133 83.9963 130.729 83.6511C134.651 83.1292 135.936 83.506 138.325 85.8756L141.202 88.7297L144.378 86.0184C147.858 83.0484 152.715 82.5499 157.422 84.6773C161.041 86.3133 161.379 87.6215 161.917 102.03C162.145 108.144 162.76 114.097 163.284 115.258C164.152 117.179 163.617 117.336 157.305 117.013L150.372 116.657L150.081 104.37C149.739 89.9818 149.162 86.8176 146.879 86.8176C143.209 86.8176 141.526 91.7067 141.526 102.367C141.526 108.059 142.076 113.734 142.747 114.979C143.891 117.099 143.523 117.242 136.946 117.242H129.923L129.533 102.709C129.317 94.7164 128.819 87.8579 128.425 87.4694C128.032 87.0809 126.886 87.0762 125.88 87.4589C122.514 88.7402 121.226 94.425 121.654 106.112L122.065 117.343L115.577 117L109.09 116.657L108.5 104.031C108.066 94.7503 107.458 91.1286 106.202 90.3609Z" fill="#497468"/>
<path d="M168.688 90.3457C166.568 89.0492 166.644 88.986 173.962 85.9458C181.821 82.6822 182.808 82.736 182.808 86.4361V89.5664L185.641 86.9253C187.199 85.4731 190.608 84.001 193.218 83.6546C197.166 83.1292 198.445 83.5013 200.838 85.8756L203.714 88.7297L206.891 86.0184C210.861 82.6295 216.82 82.4844 220.909 85.6755C223.779 87.9141 223.965 88.7274 224.34 100.595C224.558 107.498 225.189 114.097 225.744 115.258C226.663 117.184 226.146 117.337 219.818 117.013L212.885 116.657L212.164 102.03C211.768 93.985 211.371 87.2705 211.28 87.1102C210.77 86.2021 208.064 87.0774 206.196 88.7543C204.397 90.3691 204.039 92.5211 204.039 101.704C204.039 107.76 204.588 113.734 205.26 114.979C206.404 117.1 206.035 117.242 199.385 117.242C190.936 117.242 191.197 117.77 190.766 99.7845C190.454 86.6819 189.24 84.3052 185.644 89.7501C184.084 92.1115 183.646 95.1505 183.758 102.814C183.839 108.307 184.234 113.828 184.635 115.082C185.31 117.193 184.846 117.338 178.484 117.011L171.603 116.657L171.013 104.031C170.576 94.6579 169.976 91.1321 168.688 90.3457Z" fill="#497468"/>
<path d="M231.567 91.2912C229.263 88.7648 229.003 89.0503 236.475 85.9458C239.718 84.5989 242.991 83.4533 243.747 83.4018C244.704 83.3363 245.243 87.5759 245.517 97.3107C245.845 108.949 246.272 111.667 248.049 113.401C250.103 115.405 250.301 115.358 253.062 112.204C255.508 109.409 255.936 107.723 255.936 100.879C255.936 95.0265 255.416 92.3198 254.027 90.9414C252.976 89.8987 252.313 88.9029 252.552 88.7285C253.576 87.9796 265.778 83.3071 266.709 83.3071C267.271 83.3071 267.731 89.3803 267.731 96.8016C267.731 109.717 267.846 110.341 270.385 111.308L273.039 112.321L270.09 113.472C268.468 114.105 265.095 115.473 262.593 116.511C257.459 118.64 255.936 118.21 255.936 114.629V112.153L253.282 114.544C249.473 117.977 244.854 118.739 240.016 116.733C234.908 114.617 233.526 111.301 233.526 101.169C233.526 95.6069 232.976 92.8359 231.567 91.2912Z" fill="#497468"/>
<path d="M276.028 90.3492C274.4 89.3546 277.048 87.8076 286.603 84.166C289.644 83.0075 290.075 83.224 290.854 86.3016L291.611 89.2949L294.299 86.7907C295.777 85.4122 299.065 84.0092 301.607 83.671C305.38 83.169 306.862 83.5961 309.684 86.002C312.99 88.8198 313.17 89.4739 313.794 101.047C314.153 107.702 314.885 114.097 315.419 115.258C316.305 117.18 315.776 117.336 309.459 117.013L302.526 116.657L301.936 102.962C301.299 88.1715 300.31 85.6123 296.212 88.1516C292.22 90.6254 291.05 95.2313 291.497 106.705L291.911 117.343L285.423 117L278.936 116.657L278.347 104.031C277.91 94.6778 277.309 91.1321 276.028 90.3492Z" fill="#497468"/>
<path d="M323.284 87.0329C326.138 85.8276 329.271 84.5393 330.244 84.1707C333.877 82.7969 334.383 84.3356 334.997 98.6131C335.341 106.607 336.072 114.097 336.621 115.258C337.534 117.184 337.015 117.337 330.69 117.013L323.757 116.657L323.167 104.565C322.674 94.4484 322.211 92.2063 320.335 90.8489C318.236 89.33 318.424 89.0866 323.284 87.0329Z" fill="#497468"/>
<path fill-rule="evenodd" clip-rule="evenodd" d="M75.4748 85.4017C62.8059 92.2719 63.1444 109.867 76.0645 116.072C82.3288 119.081 85.5582 119.022 92.0053 115.78C108.178 107.647 103.496 85.2355 85.2928 83.6569C81.1847 83.3 78.4553 83.7857 75.4748 85.4017ZM89.7053 103.612C88.225 95.8795 86.3992 91.4071 83.4469 88.2803C78.7573 83.3141 77.1909 85.713 78.1652 96.3687C78.9425 104.874 83.3726 114.16 86.8946 114.673C90.1181 115.141 91.1419 111.112 89.7053 103.612Z" fill="#497468"/>
</svg>
