<svg width="459" height="59" viewBox="0 0 459 59" fill="none" xmlns="http://www.w3.org/2000/svg">
<path fill-rule="evenodd" clip-rule="evenodd" d="M61.4429 1.88168C58.6329 3.12468 56.8309 3.46968 56.6099 2.80668C56.4159 2.22568 54.4789 1.74968 52.3049 1.74968C48.6769 1.74968 48.4399 1.91168 49.4129 3.72868C50.2309 5.25768 49.7469 8.22569 47.2859 16.7667C45.5329 22.8487 43.7919 27.4707 43.4159 27.0377C43.0399 26.6037 40.3399 21.0747 37.4159 14.7497C31.7099 2.40569 30.6029 0.520685 29.4689 1.22168C29.0679 1.46968 27.2329 6.86769 25.3899 13.2187C23.5469 19.5687 21.7409 24.4237 21.3759 24.0077C19.8649 22.2827 15.3719 5.48768 15.9419 3.69368C16.5209 1.86768 16.0239 1.75068 7.74088 1.77168C-0.809121 1.79368 -1.00812 1.84668 1.15488 3.52168C2.75188 4.75869 5.16688 10.6477 9.65488 24.2497C13.1029 34.6997 16.3589 43.2497 16.8899 43.2497C17.4209 43.2497 19.4829 37.8497 21.4719 31.2497C23.4609 24.6497 25.3369 18.5747 25.6409 17.7497C25.9689 16.8597 28.7469 21.6337 32.4759 29.4997C35.9309 36.7877 39.2909 42.7497 39.9419 42.7497C40.5949 42.7497 42.8259 37.0257 44.9119 29.9997C52.0189 6.06668 52.4139 4.96768 54.1519 4.30068C55.0929 3.93968 55.5579 3.94868 55.1859 4.32068C54.8139 4.69369 55.3879 5.72968 56.4629 6.62368C58.2399 8.10268 58.4389 9.78168 58.6699 25.2497L58.9239 42.2497L64.8019 42.5537C70.1569 42.8297 70.6059 42.6967 69.8569 41.0537C68.4809 38.0367 68.1979 27.3007 69.3789 22.9157C70.6389 18.2357 73.6769 15.8857 75.9879 17.8027C77.0659 18.6977 77.4239 21.5617 77.4239 29.2907C77.4239 34.9527 77.6969 40.2977 78.0309 41.1677C78.4759 42.3287 80.0169 42.7497 83.8159 42.7497H88.9949L88.6489 32.4997C88.4599 26.8617 87.8179 20.9907 87.2229 19.4527C86.0439 16.4017 81.8539 13.7477 78.2239 13.7537C75.4509 13.7577 69.5009 17.2197 69.2299 18.9847C69.1239 19.6807 68.7859 15.7857 68.4799 10.3297C68.1739 4.87369 67.4739 0.294685 66.9239 0.154685C66.3739 0.0136849 63.9079 0.790685 61.4429 1.88168ZM188.424 0.487685C187.599 0.802685 185 1.87868 182.649 2.87968L178.374 4.69968L180.399 6.72468C181.513 7.83868 182.424 9.99869 182.424 11.5257C182.424 14.1587 182.218 14.2827 178.457 13.9247C167.839 12.9117 160.111 25.9657 165.102 36.4837C167.356 41.2347 174.233 44.4507 179.004 42.9867C180.795 42.4367 182.635 42.3457 183.093 42.7837C183.55 43.2217 186.849 42.3837 190.424 40.9217C195.176 38.9797 196.325 38.1777 194.696 37.9407C192.494 37.6207 192.464 37.3927 192.196 19.0157C192.03 7.67769 191.534 0.317685 190.924 0.165685C190.374 0.0286849 189.249 0.173685 188.424 0.487685ZM349.424 1.44368C347.499 2.28568 344.868 3.37968 343.578 3.87368L341.232 4.77368L343.324 6.51168C345.277 8.13369 345.433 9.38568 345.67 25.2497L345.924 42.2497L351.758 42.5517C357.471 42.8487 357.575 42.8067 356.758 40.5517C355.72 37.6867 355.677 25.1887 356.692 21.5287C357.108 20.0317 358.395 18.3007 359.552 17.6807C363.482 15.5777 364.624 18.3097 365.192 31.1637L365.703 42.7497H371.622C376.123 42.7497 377.348 42.4497 376.733 41.4997C376.288 40.8127 375.694 35.3657 375.413 29.3957C374.914 18.8057 374.829 18.4847 371.913 16.1507C370.269 14.8357 367.664 13.7577 366.124 13.7547C362.709 13.7487 357.886 16.1277 356.504 18.4997C355.763 19.7717 355.477 17.4517 355.454 9.99969C355.421 -1.21431 355.44 -1.18732 349.424 1.44368ZM416.424 0.487685C415.599 0.802685 412.943 1.90368 410.523 2.93368C406.403 4.68868 406.243 4.89668 408.023 6.19568C409.728 7.44068 409.976 9.37169 410.424 24.9167L410.924 42.2497L416.766 42.5527C421.377 42.7917 422.43 42.5807 421.766 41.5527C421.303 40.8357 420.699 31.2867 420.424 20.3307C420.122 8.30768 419.528 0.313685 418.924 0.164685C418.374 0.0276849 417.249 0.173685 416.424 0.487685ZM132.962 9.28868C131.477 11.2357 128.499 13.9957 126.343 15.4217C122.02 18.2827 121.37 19.7497 124.424 19.7497C126.28 19.7497 126.424 20.4167 126.424 29.0267C126.424 39.4947 127.557 42.1807 132.425 43.2497C136.221 44.0837 140.244 43.1927 143.339 40.8337L145.754 38.9927L141.839 39.1207L137.924 39.2497L137.638 29.4997L137.352 19.7497H140.388C142.058 19.7497 143.424 19.2997 143.424 18.7497C143.424 18.1997 142.819 17.7497 142.079 17.7497C139.545 17.7497 137.424 14.1817 137.424 9.92068C137.424 7.62669 137.027 5.74968 136.543 5.74968C136.058 5.74968 134.447 7.34268 132.962 9.28868ZM98.4159 15.9997C93.9299 19.0547 92.6339 21.2707 94.0309 23.4997C96.7749 27.8767 102.424 24.5697 102.424 18.5867C102.424 17.0907 102.942 15.5477 103.576 15.1557C105.428 14.0107 107.424 17.7807 107.424 22.4237C107.424 26.5277 107.216 26.8257 102.674 29.2087C94.5049 33.4957 92.0119 36.5327 93.4769 40.4117C94.6629 43.5497 97.9559 44.2007 102.964 42.2877C106.969 40.7577 107.502 40.7547 109.773 42.2427C112.088 43.7597 112.59 43.7087 118.078 41.3937C123.52 39.0987 123.715 38.9067 120.922 38.5897C117.937 38.2507 117.923 38.2207 117.68 31.2497C117.284 19.9167 116.686 17.8807 113.12 15.7057C108.763 13.0487 102.567 13.1727 98.4159 15.9997ZM206.408 15.6017C195.526 21.3837 195.738 36.3347 206.777 41.6787C212.18 44.2937 214.693 44.2817 220.206 41.6127C225.729 38.9397 228.415 34.6997 228.42 28.6477C228.429 17.5017 216.329 10.3297 206.408 15.6017ZM251.72 16.0777C245.548 18.7427 244.318 19.7497 247.234 19.7497C249.871 19.7497 251.299 21.8877 255.921 32.7497C261.174 45.0967 261.261 45.1327 266.834 37.3237C269.414 33.7077 271.84 30.7517 272.225 30.7537C272.609 30.7567 274.049 33.4497 275.424 36.7397C276.799 40.0297 278.438 42.9197 279.065 43.1627C279.693 43.4047 281.586 41.8877 283.272 39.7897L286.337 35.9757L281.515 25.1127C276.136 12.9937 276.362 13.1327 267.904 16.7587C263.063 18.8337 263.035 18.8717 265.465 20.0777C266.818 20.7487 268.794 22.9107 269.857 24.8837C271.785 28.4607 271.784 28.4767 269.652 31.1867L267.515 33.9037L266.115 30.5767C265.345 28.7467 263.673 24.7747 262.399 21.7497C259.966 15.9727 258.596 13.7227 257.552 13.7897C257.206 13.8117 254.582 14.8417 251.72 16.0777ZM286.681 15.5847L282.437 17.3087L285.154 20.0257C287.262 22.1327 287.869 23.6957 287.864 26.9957C287.861 29.3357 287.459 32.1107 286.971 33.1637C285.346 36.6717 288.437 33.7977 291.522 28.9347C294.673 23.9647 295.29 18.4747 293.032 15.4997C291.466 13.4377 291.985 13.4307 286.681 15.5847ZM305.642 15.4127C299.753 18.3157 296.231 25.8607 297.816 32.1767C298.753 35.9087 304.038 41.4677 307.843 42.7227C312.13 44.1377 318.98 42.6657 321.824 39.7177L323.924 37.5407L321.747 38.1897C318.661 39.1087 313.098 36.5047 310.573 32.9587C309.391 31.2987 308.424 29.5477 308.424 29.0667C308.424 28.5857 311.574 27.3817 315.424 26.3897C321.579 24.8037 322.424 24.3037 322.424 22.2497C322.424 18.5627 321.397 16.7867 318.352 15.2127C314.675 13.3107 309.749 13.3887 305.642 15.4127ZM387.441 15.6007C382.721 18.1317 380.298 21.6897 379.704 26.9597C378.255 39.8147 393.267 48.2877 403.041 40.1307L405.924 37.7257L403.282 38.3187C401.732 38.6667 399.391 38.2667 397.62 37.3507C394.418 35.6947 390.424 31.2467 390.424 29.3367C390.424 28.7077 393.574 27.3817 397.424 26.3897C404.016 24.6907 404.424 24.4217 404.424 21.7567C404.424 17.7867 399.462 13.7497 394.582 13.7497C392.553 13.7497 389.339 14.5827 387.441 15.6007ZM436.185 14.6547C435.491 14.8777 432.899 15.9367 430.424 17.0087C426.26 18.8127 426.092 19.0227 428.174 19.8217C430.398 20.6757 430.424 20.9027 430.424 39.7177C430.424 55.1427 430.683 58.7497 431.791 58.7497C432.542 58.7497 435.479 57.7847 438.316 56.6057C443.048 54.6397 443.348 54.3227 441.949 52.7777C441.103 51.8427 440.424 49.2627 440.424 46.9837C440.424 42.9157 440.456 42.8807 443.674 43.3607C447.926 43.9947 453.23 41.2287 456.154 36.8517C457.841 34.3267 458.423 32.0157 458.42 27.8517C458.416 20.8847 455.923 16.3817 451.251 14.9027C448.122 13.9117 438.966 13.7607 436.185 14.6547ZM182.424 27.7497C182.424 37.1347 182.131 39.7497 181.079 39.7497C177.545 39.7497 173.424 30.6367 173.424 22.8237C173.424 17.2917 174.667 15.7497 179.124 15.7497H182.424V27.7497ZM213.216 18.0277C216.893 21.9427 218.841 29.2927 218.525 38.0697C218.442 40.3937 218.031 40.8327 216.189 40.5697C212.826 40.0887 209.283 32.8587 208.67 25.2287C207.908 15.7387 209.177 13.7287 213.216 18.0277ZM312.817 17.3317C314.119 20.7247 313.432 24.6747 311.346 25.7917C307.936 27.6167 306.424 26.2817 306.424 21.4477C306.424 19.0467 306.724 16.7827 307.091 16.4167C308.364 15.1437 312.213 15.7587 312.817 17.3317ZM394.224 16.9497C396.252 18.9777 395.701 24.5317 393.346 25.7917C390.36 27.3897 388.747 26.3887 388.169 22.5787C387.311 16.9277 390.882 13.6077 394.224 16.9497ZM445.116 20.6387C447.997 24.8897 449.901 34.0947 448.738 38.1487C447.964 40.8487 447.401 41.2497 444.387 41.2497H440.924L440.642 28.9057C440.336 15.4607 440.9 14.4177 445.116 20.6387ZM107.424 33.2497C107.424 37.8647 106.094 39.0197 103.624 36.5497C101.961 34.8867 102.125 32.7377 104.079 30.5787C106.644 27.7447 107.424 28.3677 107.424 33.2497Z" fill="#497468"/>
</svg>
