<svg width="35" height="35" viewBox="0 0 35 35" fill="none" xmlns="http://www.w3.org/2000/svg">
<path fill-rule="evenodd" clip-rule="evenodd" d="M6.70519 3.79079C9.13798 1.95425 10.5018 1.27877 13.2104 0.56804C18.1423 -0.725551 21.123 0.244642 20.4504 2.92507C20.1961 3.94017 19.2982 4.35713 16.7682 4.63499C12.3742 5.11775 9.67402 7.61293 9.67402 11.1909C9.67402 13.3511 10.0452 14.4536 11.1743 15.6477C12.3652 16.9073 13.3967 17.3691 15.7719 17.7056C18.0915 18.0343 19.3353 18.8835 19.3353 20.1388C19.3353 21.7561 18.1909 22.7266 15.7659 23.1669C14.1425 23.4616 12.3278 24.4072 11.7203 25.2748C10.3441 27.2407 11.7559 30.1482 15.2455 32.5339C18.0242 34.4337 18.0896 35.0494 15.5079 34.997C10.154 34.8884 4.19543 30.5056 1.56538 24.7418C-1.78398 17.4013 0.384204 8.56286 6.70519 3.79079ZM12.1673 11.1759C12.1673 9.97152 13.3777 7.8303 14.4455 7.14577C15.7734 6.29471 18.199 6.28254 19.5719 7.1202C22.5042 8.90902 22.5616 13.2189 19.6788 15.1459C18.2869 16.0765 15.9264 16.1092 14.4857 15.2182C13.3939 14.5434 12.1673 12.404 12.1673 11.1759Z" fill="#497468"/>
<path fill-rule="evenodd" clip-rule="evenodd" d="M6.70519 3.79079C9.13798 1.95425 10.5018 1.27877 13.2104 0.56804C18.1423 -0.725551 21.123 0.244642 20.4504 2.92507C20.1961 3.94017 19.2982 4.35713 16.7682 4.63499C12.3742 5.11775 9.67402 7.61293 9.67402 11.1909C9.67402 13.3511 10.0452 14.4536 11.1743 15.6477C12.3652 16.9073 13.3967 17.3691 15.7719 17.7056C18.0915 18.0343 19.3353 18.8835 19.3353 20.1388C19.3353 21.7561 18.1909 22.7266 15.7659 23.1669C14.1425 23.4616 12.3278 24.4072 11.7203 25.2748C10.3441 27.2407 11.7559 30.1482 15.2455 32.5339C18.0242 34.4337 18.0896 35.0494 15.5079 34.997C10.154 34.8884 4.19543 30.5056 1.56538 24.7418C-1.78398 17.4013 0.384204 8.56286 6.70519 3.79079ZM12.1673 11.1759C12.1673 9.97152 13.3777 7.8303 14.4455 7.14577C15.7734 6.29471 18.199 6.28254 19.5719 7.1202C22.5042 8.90902 22.5616 13.2189 19.6788 15.1459C18.2869 16.0765 15.9264 16.1092 14.4857 15.2182C13.3939 14.5434 12.1673 12.404 12.1673 11.1759Z" fill="url(#paint0_linear_4_98)"/>
<path d="M26.993 4.4931C26.208 5.27898 26.4168 6.14782 27.7566 7.67125C31.3297 11.7329 30.9196 18.8595 26.9095 22.3916C24.5453 24.4742 24.4702 24.2413 26.1793 20.1316C27.8473 16.1214 28.2449 14.477 27.7887 13.4753C27.1844 12.148 26.2647 12.6311 24.7444 15.0742C19.6152 23.3157 18.8223 29.1321 18.8223 29.1321C18.8223 29.1321 20.1721 35.8271 25.2649 33.2764C31.3939 30.2068 35.0353 24.3894 34.9997 17.725C34.9745 13.0137 33.4346 8.93054 30.4515 5.66475C28.8486 3.90961 27.8981 3.58777 26.993 4.4931Z" fill="#497468"/>
<path d="M26.993 4.4931C26.208 5.27898 26.4168 6.14782 27.7566 7.67125C31.3297 11.7329 30.9196 18.8595 26.9095 22.3916C24.5453 24.4742 24.4702 24.2413 26.1793 20.1316C27.8473 16.1214 28.2449 14.477 27.7887 13.4753C27.1844 12.148 26.2647 12.6311 24.7444 15.0742C19.6152 23.3157 18.8223 29.1321 18.8223 29.1321C18.8223 29.1321 20.1721 35.8271 25.2649 33.2764C31.3939 30.2068 35.0353 24.3894 34.9997 17.725C34.9745 13.0137 33.4346 8.93054 30.4515 5.66475C28.8486 3.90961 27.8981 3.58777 26.993 4.4931Z" fill="url(#paint1_linear_4_98)"/>
<defs>
<linearGradient id="paint0_linear_4_98" x1="34.9054" y1="17.4641" x2="8.49395e-07" y2="17.4641" gradientUnits="userSpaceOnUse">
<stop stop-color="#749F82"/>
<stop offset="1" stop-opacity="0"/>
</linearGradient>
<linearGradient id="paint1_linear_4_98" x1="34.9054" y1="17.4641" x2="8.49395e-07" y2="17.4641" gradientUnits="userSpaceOnUse">
<stop stop-color="#749F82"/>
<stop offset="1" stop-opacity="0"/>
</linearGradient>
</defs>
</svg>
