<svg width="236" height="103" viewBox="0 0 236 103" fill="none" xmlns="http://www.w3.org/2000/svg">
<path d="M9.96697 28.3822C9.58493 28.781 9.59852 29.414 9.99735 29.796C10.3962 30.1781 11.0292 30.1645 11.4112 29.7657L9.96697 28.3822ZM27.061 20.1224L26.7767 21.0811L27.061 20.1224ZM40.9553 37.8826L41.9534 37.8211L40.9553 37.8826ZM45.7779 69.9231L44.9095 70.419L45.7779 69.9231ZM80.4078 53.7918L81.123 54.4907L80.4078 53.7918ZM99.8526 52.7074L99.1679 53.4362L99.8526 52.7074ZM106.14 72.7295L105.14 72.7268L106.14 72.7295ZM126.778 68.0578L115.715 71.3662L124.112 79.2928L126.778 68.0578ZM11.4112 29.7657C13.6306 27.4489 15.8882 24.8069 18.4748 22.946C21.017 21.1169 23.7088 20.1712 26.7767 21.0811L27.3454 19.1637C23.4678 18.0136 20.1339 19.2884 17.3067 21.3225C14.5239 23.3247 12.0683 26.1886 9.96697 28.3822L11.4112 29.7657ZM26.7767 21.0811C30.9298 22.313 34.0785 24.4351 36.2573 27.2619C38.4383 30.0916 39.6946 33.6889 39.9572 37.9442L41.9534 37.8211C41.6707 33.2397 40.3074 29.2404 37.8414 26.041C35.3731 22.8386 31.8473 20.499 27.3454 19.1637L26.7767 21.0811ZM39.9572 37.9442C40.1146 40.4953 40.1608 43.1757 40.2252 45.9411C40.2894 48.6969 40.3714 51.528 40.603 54.3361C41.0654 59.9446 42.1293 65.5499 44.9095 70.419L46.6463 69.4273C44.079 64.9312 43.0493 59.6669 42.5962 54.1718C42.37 51.428 42.2888 48.6489 42.2247 45.8946C42.1608 43.15 42.1137 40.4206 41.9534 37.8211L39.9572 37.9442ZM44.9095 70.419C47.8192 75.5149 51.1914 77.7856 54.8707 77.8025C58.4373 77.8189 61.9458 75.6984 65.143 72.8948C68.3696 70.0654 71.455 66.381 74.1786 62.9639C76.9376 59.5023 79.2839 56.3726 81.123 54.4907L79.6926 53.0929C77.7595 55.071 75.2977 58.3511 72.6146 61.7173C69.8962 65.1279 66.9056 68.6891 63.8244 71.391C60.7138 74.1187 57.6826 75.8154 54.8799 75.8025C52.19 75.7902 49.3631 74.1853 46.6463 69.4273L44.9095 70.419ZM81.123 54.4907C83.2121 52.3528 86.5527 50.9597 90.015 50.691C93.4761 50.4224 96.8817 51.2886 99.1679 53.4362L100.537 51.9785C97.7248 49.3366 93.7006 48.399 89.8603 48.697C86.0211 48.9949 82.1886 50.5387 79.6926 53.0929L81.123 54.4907ZM99.1679 53.4362C99.3491 53.6064 99.6098 53.9597 99.9302 54.539C100.241 55.1005 100.573 55.8105 100.915 56.6351C101.599 58.283 102.301 60.3309 102.933 62.4403C103.564 64.5476 104.121 66.6985 104.518 68.5475C104.921 70.4233 105.142 71.9097 105.14 72.7268L107.14 72.7322C107.143 71.6798 106.877 70.0077 106.473 68.1275C106.064 66.2206 105.493 64.0181 104.849 61.8663C104.205 59.7164 103.481 57.5994 102.762 55.8681C102.403 55.0031 102.039 54.22 101.68 53.5712C101.332 52.9404 100.95 52.3663 100.537 51.9785L99.1679 53.4362ZM105.14 72.7268C105.133 75.2104 105.672 77.0835 106.777 78.3212C107.91 79.589 109.475 80.012 111.101 79.9337C114.263 79.7814 118.087 77.7314 121.199 75.4036L120.001 73.8021C116.96 76.0771 113.542 77.8138 111.005 77.936C109.782 77.9949 108.884 77.677 108.269 76.9887C107.627 76.2703 107.134 74.9722 107.14 72.7322L105.14 72.7268Z" fill="#5D8478"/>
<circle cx="184" cy="53" r="25" fill="#FFB200"/>
<path d="M184.67 0.363636V12H183.329V0.363636H184.67Z" fill="#2D2D2D"/>
<path d="M192.473 14.2189C191.654 14.0317 190.988 13.6894 190.476 13.1918C189.968 12.6913 189.629 12.0776 189.456 11.3506C189.289 10.6208 189.305 9.82012 189.504 8.94859C189.702 8.07706 190.037 7.34518 190.506 6.75295C190.98 6.15786 191.545 5.73915 192.203 5.49681C192.865 5.25163 193.58 5.21669 194.348 5.39201C194.791 5.49316 195.212 5.6669 195.61 5.91323C196.009 6.15956 196.347 6.48937 196.626 6.90265C196.906 7.31223 197.089 7.81248 197.175 8.40338C197.262 8.99428 197.214 9.68672 197.033 10.4807L196.907 11.0346L190.348 9.53767L190.606 8.40764L195.835 9.60117C195.945 9.12109 195.947 8.67079 195.841 8.25029C195.738 7.83062 195.536 7.47181 195.235 7.17386C194.938 6.87675 194.553 6.67425 194.08 6.56636C193.559 6.44751 193.079 6.47393 192.64 6.64562C192.205 6.81445 191.839 7.08065 191.543 7.4442C191.246 7.80776 191.044 8.22404 190.937 8.69303L190.765 9.44639C190.619 10.089 190.605 10.6589 190.725 11.1564C190.849 11.6509 191.084 12.06 191.429 12.3837C191.776 12.7037 192.213 12.924 192.741 13.0445C193.085 13.1229 193.406 13.1457 193.705 13.1129C194.008 13.0773 194.284 12.9847 194.532 12.8354C194.78 12.6823 194.994 12.4707 195.172 12.2006L196.354 12.8434C196.123 13.2414 195.814 13.5671 195.426 13.8204C195.039 14.07 194.594 14.2327 194.091 14.3083C193.589 14.3801 193.05 14.3504 192.473 14.2189Z" fill="#2D2D2D"/>
<path d="M199.908 16.7869C199.409 16.547 199.002 16.2354 198.687 15.8521C198.373 15.4654 198.182 15.0354 198.116 14.562C198.051 14.0852 198.142 13.5908 198.389 13.0789C198.606 12.6284 198.87 12.306 199.183 12.1116C199.496 11.9138 199.84 11.8062 200.215 11.7888C200.589 11.7714 200.974 11.8097 201.37 11.9038C201.771 11.9961 202.166 12.1063 202.554 12.2343C203.061 12.403 203.471 12.5435 203.783 12.6557C204.099 12.7662 204.345 12.8151 204.519 12.8024C204.697 12.7913 204.833 12.6884 204.926 12.4939L204.946 12.453C205.189 11.9479 205.24 11.4888 205.099 11.0759C204.96 10.6645 204.613 10.3249 204.057 10.057C203.48 9.77929 202.967 9.6878 202.518 9.78257C202.068 9.87734 201.708 10.036 201.437 10.2586L200.488 9.29684C200.923 8.91766 201.375 8.67715 201.844 8.5753C202.319 8.47169 202.784 8.46477 203.242 8.55455C203.704 8.64256 204.133 8.78189 204.529 8.97254C204.781 9.09416 205.056 9.26457 205.354 9.48378C205.658 9.70121 205.918 9.97603 206.137 10.3082C206.358 10.6421 206.482 11.0443 206.508 11.5149C206.533 11.9855 206.396 12.5331 206.095 13.1576L203.6 18.3382L202.392 17.7564L202.905 16.6916L202.844 16.662C202.679 16.7932 202.455 16.9101 202.17 17.0125C201.885 17.115 201.551 17.1581 201.168 17.1418C200.785 17.1254 200.365 17.0072 199.908 16.7869ZM200.615 15.7904C201.092 16.0205 201.54 16.1206 201.958 16.0907C202.38 16.0624 202.746 15.9401 203.056 15.7237C203.369 15.5089 203.605 15.2378 203.763 14.9101L204.295 13.8044C204.215 13.8412 204.075 13.8433 203.876 13.8106C203.682 13.7762 203.464 13.7236 203.221 13.6526C202.982 13.5799 202.751 13.5063 202.526 13.4317C202.306 13.3553 202.128 13.2945 201.99 13.2491C201.656 13.1388 201.331 13.064 201.013 13.0247C200.701 12.9836 200.417 13.0132 200.163 13.1136C199.914 13.2121 199.715 13.415 199.567 13.7221C199.365 14.1419 199.368 14.5341 199.575 14.8986C199.787 15.2614 200.133 15.5587 200.615 15.7904Z" fill="#2D2D2D"/>
<path d="M206.76 20.527L212.202 13.7037L213.214 14.5114L212.393 15.542L212.464 15.5987C212.857 15.3603 213.301 15.2658 213.794 15.3154C214.288 15.3649 214.739 15.5526 215.147 15.8785C215.224 15.9399 215.319 16.0182 215.433 16.1132C215.546 16.2083 215.63 16.2824 215.684 16.3356L214.834 17.4017C214.805 17.3645 214.735 17.2862 214.621 17.1669C214.514 17.047 214.39 16.9315 214.251 16.8205C213.919 16.556 213.568 16.3894 213.196 16.3208C212.83 16.2515 212.474 16.2781 212.129 16.4005C211.79 16.5223 211.498 16.7372 211.252 17.0452L207.809 21.363L206.76 20.527Z" fill="#2D2D2D"/>
<path d="M217.17 22.948L213.066 26.2213L212.23 25.1729L219.053 19.7315L219.861 20.7444L218.795 21.5946L218.865 21.6834C219.339 21.567 219.811 21.5879 220.282 21.746C220.755 21.9017 221.197 22.2372 221.607 22.7525C221.976 23.2145 222.203 23.6943 222.29 24.1919C222.38 24.6872 222.311 25.1834 222.082 25.6806C221.857 26.1754 221.454 26.6542 220.873 27.1171L216.537 30.5747L215.701 29.5263L219.966 26.1254C220.502 25.698 220.809 25.2258 220.886 24.7089C220.966 24.1896 220.812 23.6871 220.425 23.2014C220.158 22.8668 219.847 22.6255 219.492 22.4777C219.139 22.3328 218.763 22.2958 218.364 22.3668C217.965 22.4378 217.567 22.6315 217.17 22.948Z" fill="#2D2D2D"/>
<path d="M221.652 43.0615C221.529 42.5223 221.519 42.0098 221.621 41.524C221.728 41.0374 221.945 40.6205 222.274 40.2735C222.607 39.9257 223.05 39.6885 223.604 39.5621C224.091 39.4508 224.508 39.4567 224.855 39.5796C225.205 39.7017 225.504 39.9035 225.751 40.1852C225.998 40.4669 226.208 40.7919 226.381 41.1603C226.559 41.5315 226.719 41.9088 226.861 42.2921C227.046 42.7939 227.191 43.2017 227.298 43.5154C227.409 43.8319 227.524 44.0544 227.642 44.1827C227.762 44.3147 227.927 44.3567 228.137 44.3087L228.182 44.2986C228.728 44.1738 229.119 43.9273 229.353 43.5591C229.589 43.1945 229.638 42.7113 229.5 42.1093C229.358 41.4852 229.11 41.0271 228.755 40.735C228.401 40.4428 228.052 40.2601 227.709 40.1869L227.869 38.845C228.437 38.9485 228.907 39.1521 229.279 39.4556C229.656 39.762 229.952 40.1219 230.167 40.5352C230.386 40.9514 230.545 41.3737 230.642 41.802C230.705 42.0753 230.743 42.3968 230.758 42.7665C230.777 43.139 230.724 43.5142 230.601 43.8921C230.478 44.2737 230.241 44.6212 229.889 44.9347C229.537 45.2481 229.023 45.4819 228.347 45.6362L222.741 46.9157L222.443 45.6084L223.595 45.3454L223.58 45.2789C223.375 45.2325 223.144 45.1298 222.886 44.9711C222.628 44.8123 222.386 44.5781 222.16 44.2684C221.934 43.9586 221.765 43.5563 221.652 43.0615ZM222.872 42.9929C222.99 43.5099 223.191 43.9225 223.475 44.2306C223.76 44.5425 224.083 44.7522 224.446 44.8598C224.809 44.9712 225.168 44.9864 225.523 44.9054L226.719 44.6323C226.64 44.5921 226.551 44.4842 226.453 44.3085C226.359 44.1356 226.264 43.932 226.168 43.6975C226.076 43.4659 225.989 43.239 225.908 43.0168C225.83 42.7974 225.766 42.6197 225.716 42.4835C225.594 42.1539 225.45 41.8528 225.282 41.5801C225.12 41.3103 224.92 41.1072 224.683 40.9709C224.451 40.8375 224.168 40.8087 223.836 40.8846C223.381 40.9882 223.076 41.2347 222.92 41.6238C222.769 42.0158 222.753 42.4722 222.872 42.9929Z" fill="#2D2D2D"/>
<path d="M224 48.9403H235.636V50.2812H231.341V50.3949C231.492 50.4934 231.686 50.6297 231.92 50.804C232.159 50.982 232.371 51.2358 232.557 51.5653C232.746 51.8987 232.841 52.3494 232.841 52.9176C232.841 53.6525 232.657 54.3002 232.29 54.8608C231.922 55.4214 231.402 55.8589 230.727 56.1733C230.053 56.4877 229.258 56.6449 228.341 56.6449C227.417 56.6449 226.616 56.4877 225.938 56.1733C225.263 55.8589 224.741 55.4233 224.369 54.8665C224.002 54.3097 223.818 53.6676 223.818 52.9403C223.818 52.3797 223.911 51.9309 224.097 51.5938C224.286 51.2566 224.5 50.9972 224.739 50.8153C224.981 50.6335 225.182 50.4934 225.341 50.3949V50.2358H224V48.9403ZM228.364 50.2585C227.705 50.2585 227.123 50.3551 226.619 50.5483C226.119 50.7415 225.727 51.0237 225.443 51.3949C225.163 51.7661 225.023 52.2206 225.023 52.7585C225.023 53.3191 225.17 53.7869 225.466 54.1619C225.765 54.5407 226.167 54.8248 226.67 55.0142C227.178 55.2074 227.742 55.304 228.364 55.304C228.977 55.304 229.53 55.2093 230.023 55.0199C230.519 54.8343 230.911 54.5521 231.199 54.1733C231.491 53.7983 231.636 53.3267 231.636 52.7585C231.636 52.2131 231.498 51.7547 231.222 51.3835C230.949 51.0123 230.566 50.732 230.074 50.5426C229.585 50.3532 229.015 50.2585 228.364 50.2585Z" fill="#2D2D2D"/>
<path d="M221.833 61.2484C222.008 60.4803 222.345 59.848 222.843 59.3517C223.34 58.859 223.954 58.5252 224.686 58.3503C225.416 58.1791 226.221 58.1937 227.1 58.3943C227.986 58.5966 228.723 58.9339 229.311 59.406C229.898 59.8819 230.308 60.4496 230.542 61.1091C230.776 61.7723 230.805 62.488 230.629 63.2561C230.454 64.0243 230.118 64.6546 229.621 65.1473C229.123 65.6436 228.507 65.977 227.772 66.1474C227.037 66.3215 226.226 66.3074 225.34 66.1051C224.461 65.9045 223.73 65.5667 223.147 65.0917C222.563 64.6204 222.154 64.0531 221.921 63.3899C221.687 62.7303 221.657 62.0165 221.833 61.2484ZM223.007 61.5164C222.874 62.0999 222.914 62.6141 223.127 63.0591C223.34 63.504 223.67 63.8726 224.116 64.1648C224.562 64.457 225.07 64.668 225.638 64.7978C226.207 64.9276 226.758 64.9581 227.29 64.8893C227.823 64.8204 228.283 64.6322 228.672 64.3247C229.061 64.0171 229.322 63.5716 229.455 62.9881C229.588 62.4046 229.546 61.89 229.329 61.4442C229.113 60.9984 228.779 60.629 228.329 60.3359C227.879 60.0429 227.37 59.8314 226.802 59.7016C226.233 59.5718 225.684 59.5418 225.155 59.6115C224.627 59.6811 224.17 59.8702 223.785 60.1786C223.399 60.487 223.14 60.9329 223.007 61.5164Z" fill="#2D2D2D"/>
<path d="M221.401 73.0595L226.049 75.298L225.468 76.5061L217.605 72.7195L218.186 71.5114L219.517 72.1523L219.557 72.0704C219.246 71.6938 219.045 71.2436 218.952 70.7198C218.863 70.1976 218.962 69.6396 219.248 69.0458C219.484 68.5544 219.802 68.1693 220.201 67.8906C220.604 67.6136 221.076 67.471 221.618 67.463C222.163 67.4566 222.771 67.6144 223.439 67.9366L228.436 70.3427L227.854 71.5508L222.94 69.1841C222.366 68.908 221.832 68.8482 221.336 69.0046C220.838 69.1645 220.469 69.4953 220.227 69.997C220.083 70.2973 220.012 70.6397 220.016 71.0242C220.019 71.4121 220.128 71.7883 220.343 72.1528C220.557 72.5206 220.91 72.8229 221.401 73.0595Z" fill="#2D2D2D"/>
<path d="M219.886 84.224L218.998 83.5154L221.817 79.9794L222.706 80.6879L219.886 84.224ZM223.519 83.0222L222.683 84.0706L216.179 78.8843C215.883 78.6481 215.627 78.5139 215.41 78.4817C215.194 78.4548 215.007 78.4894 214.848 78.5855C214.689 78.6869 214.549 78.8146 214.426 78.9686C214.334 79.0841 214.264 79.1836 214.217 79.2671C214.173 79.3529 214.137 79.4216 214.111 79.4731L212.999 78.9353C213.029 78.843 213.082 78.7225 213.156 78.5739C213.228 78.423 213.342 78.2497 213.498 78.0543C213.734 77.7581 214.029 77.5187 214.384 77.3359C214.735 77.1562 215.116 77.0769 215.525 77.0981C215.932 77.1224 216.334 77.2927 216.731 77.6092L223.519 83.0222Z" fill="#2D2D2D"/>
<path d="M200.314 92.2051L202.552 96.8532L201.344 97.435L197.557 89.572L198.765 88.9902L199.406 90.3212L199.488 90.2818C199.48 89.7937 199.604 89.3161 199.858 88.8489C200.114 88.3851 200.539 88.0102 201.132 87.7243C201.624 87.4876 202.112 87.3847 202.598 87.4157C203.086 87.45 203.544 87.633 203.973 87.9647C204.403 88.2997 204.779 88.8017 205.101 89.4706L207.507 94.4669L206.299 95.0487L203.933 90.1343C203.657 89.561 203.276 89.1809 202.791 88.9941C202.302 88.809 201.807 88.8372 201.305 89.0788C201.005 89.2234 200.737 89.4473 200.5 89.7504C200.26 90.0552 200.111 90.4172 200.052 90.8365C199.99 91.2574 200.077 91.7136 200.314 92.2051Z" fill="#2D2D2D"/>
<path d="M190.374 98.3937L191.473 97.7933C191.591 97.9722 191.743 98.1375 191.93 98.2893C192.113 98.4456 192.34 98.5569 192.612 98.6231C192.883 98.6893 193.209 98.6791 193.59 98.5922C194.11 98.4734 194.517 98.2543 194.809 97.9351C195.099 97.6203 195.202 97.2802 195.118 96.9146C195.044 96.5896 194.868 96.3599 194.588 96.2255C194.309 96.0911 193.904 96.0185 193.373 96.0075L192.039 95.9856C191.236 95.9746 190.605 95.8215 190.145 95.5262C189.686 95.2347 189.389 94.7916 189.253 94.1971C189.142 93.7096 189.183 93.2418 189.376 92.7937C189.565 92.3464 189.884 91.9551 190.332 91.6197C190.78 91.2844 191.334 91.0412 191.995 90.8904C192.863 90.6923 193.624 90.7167 194.279 90.9636C194.934 91.2104 195.419 91.6785 195.736 92.3677L194.566 92.9612C194.343 92.5302 194.041 92.2378 193.66 92.0838C193.276 91.9307 192.816 91.9153 192.28 92.0375C191.671 92.1766 191.217 92.4162 190.917 92.7565C190.615 93.1013 190.506 93.4565 190.589 93.8221C190.657 94.1175 190.817 94.3413 191.069 94.4936C191.322 94.6495 191.674 94.7284 192.126 94.7303L193.619 94.739C194.441 94.7458 195.079 94.9014 195.533 95.2057C195.984 95.5145 196.277 95.9625 196.411 96.5497C196.52 97.0298 196.482 97.4852 196.297 97.9161C196.108 98.3477 195.803 98.7223 195.382 99.0399C194.957 99.3583 194.446 99.5857 193.848 99.7223C193.006 99.9144 192.303 99.8807 191.738 99.621C191.17 99.3621 190.715 98.953 190.374 98.3937Z" fill="#2D2D2D"/>
<path d="M170.705 99.0471L170.958 97.9393L175.367 98.9457L175.114 100.054L170.705 99.0471ZM173.364 101.799L172.057 101.5L173.908 93.3907C173.992 93.0214 174.002 92.7322 173.937 92.5231C173.867 92.3169 173.755 92.163 173.599 92.0614C173.439 91.9627 173.263 91.8915 173.071 91.8476C172.927 91.8148 172.807 91.7952 172.711 91.7889C172.615 91.7863 172.538 91.7842 172.48 91.7826L172.482 90.5476C172.578 90.5346 172.709 90.5296 172.876 90.5326C173.043 90.5319 173.249 90.5594 173.492 90.615C173.862 90.6993 174.205 90.8613 174.524 91.101C174.838 91.3399 175.075 91.6483 175.233 92.0264C175.388 92.4037 175.409 92.8397 175.296 93.3345L173.364 101.799Z" fill="#2D2D2D"/>
<path d="M166.029 93.7548L168.306 89.0248L169.515 89.6066L164.466 100.091L163.258 99.5088L165.111 95.6592L165.009 95.6099C164.629 95.9272 164.197 96.1166 163.714 96.178C163.225 96.2412 162.672 96.124 162.054 95.8265C161.518 95.5685 161.101 95.235 160.802 94.8261C160.501 94.4206 160.346 93.9443 160.336 93.3972C160.321 92.8519 160.476 92.2414 160.802 91.5657L163.208 86.5694L164.416 87.1512L162.049 92.0655C161.748 92.6901 161.678 93.2511 161.838 93.7485C161.993 94.2476 162.355 94.6345 162.925 94.9089C163.321 95.0996 163.716 95.1869 164.111 95.1709C164.502 95.1532 164.865 95.0275 165.2 94.7938C165.532 94.5585 165.808 94.2122 166.029 93.7548Z" fill="#2D2D2D"/>
<path d="M160.24 84.473L154.798 91.2963L153.786 90.4886L154.607 89.458L154.536 89.4013C154.143 89.6397 153.699 89.7342 153.206 89.6846C152.712 89.6351 152.261 89.4474 151.853 89.1215C151.776 89.0601 151.681 88.9818 151.567 88.8868C151.454 88.7917 151.37 88.7176 151.316 88.6644L152.166 87.5983C152.195 87.6355 152.265 87.7138 152.379 87.8331C152.486 87.953 152.61 88.0685 152.749 88.1795C153.081 88.444 153.432 88.6106 153.804 88.6792C154.17 88.7485 154.526 88.7219 154.871 88.5995C155.21 88.4777 155.502 88.2628 155.748 87.9548L159.191 83.637L160.24 84.473Z" fill="#2D2D2D"/>
<path d="M152.76 77.0151C153.252 77.6311 153.536 78.2884 153.614 78.9872C153.689 79.683 153.567 80.3714 153.247 81.0524C152.926 81.7304 152.413 82.3505 151.708 82.9126C150.997 83.4794 150.274 83.8453 149.538 84.0104C148.8 84.1726 148.1 84.1395 147.439 83.9114C146.775 83.6802 146.197 83.2566 145.706 82.6407C145.215 82.0247 144.932 81.3688 144.856 80.673C144.779 79.9742 144.902 79.2846 145.227 78.6042C145.549 77.9209 146.066 77.2958 146.776 76.729C147.481 76.1669 148.201 75.806 148.936 75.6462C149.669 75.4835 150.367 75.5177 151.031 75.7488C151.693 75.977 152.269 76.3991 152.76 77.0151ZM151.819 77.7661C151.445 77.2982 151.018 77.0088 150.538 76.8981C150.057 76.7873 149.563 76.8152 149.057 76.9819C148.55 77.1485 148.069 77.4137 147.612 77.7774C147.156 78.1411 146.789 78.5525 146.511 79.0117C146.233 79.471 146.093 79.9484 146.091 80.4442C146.089 80.9399 146.275 81.4217 146.648 81.8896C147.021 82.3575 147.449 82.6457 147.933 82.7541C148.417 82.8625 148.914 82.8322 149.423 82.6633C149.933 82.4943 150.416 82.2279 150.872 81.8642C151.328 81.5005 151.693 81.0902 151.969 80.6334C152.244 80.1765 152.381 79.7014 152.38 79.208C152.379 78.7147 152.192 78.234 151.819 77.7661Z" fill="#2D2D2D"/>
<path d="M143.795 69.3136L139.147 71.5521L138.565 70.3439L146.428 66.5573L147.01 67.7654L145.679 68.4064L145.718 68.4883C146.206 68.4803 146.684 68.6034 147.151 68.8577C147.615 69.1137 147.99 69.5385 148.276 70.1324C148.513 70.6238 148.615 71.1124 148.585 71.5982C148.55 72.0856 148.367 72.5437 148.036 72.9725C147.7 73.4029 147.198 73.7792 146.53 74.1013L141.533 76.5074L140.951 75.2993L145.866 72.9326C146.439 72.6565 146.819 72.2759 147.006 71.7907C147.191 71.3022 147.163 70.8071 146.921 70.3054C146.777 70.0051 146.553 69.7366 146.25 69.5C145.945 69.26 145.583 69.1106 145.164 69.0518C144.743 68.9897 144.287 69.0769 143.795 69.3136Z" fill="#2D2D2D"/>
<path d="M148.324 60.3685C148.468 61 148.51 61.5614 148.451 62.0527C148.396 62.5432 148.272 62.9697 148.079 63.3324C147.889 63.6905 147.666 63.9919 147.411 64.2366L146.442 63.3621C146.571 63.2085 146.714 63.0185 146.872 62.792C147.034 62.5647 147.153 62.2773 147.229 61.9297C147.308 61.5775 147.288 61.1448 147.171 60.6315C147.015 59.9446 146.719 59.4156 146.285 59.0447C145.85 58.6737 145.279 58.5691 144.57 58.7309L142.841 59.1254L142.867 59.2362C143.044 59.2968 143.267 59.3896 143.536 59.5146C143.801 59.6368 144.06 59.842 144.312 60.1302C144.56 60.4155 144.747 60.8352 144.873 61.3891C145.03 62.076 145.008 62.7298 144.808 63.3505C144.607 63.9675 144.232 64.5057 143.685 64.9649C143.136 65.4204 142.418 65.7493 141.532 65.9515C140.66 66.1505 139.867 66.1704 139.15 66.0114C138.43 65.8533 137.831 65.5414 137.352 65.0757C136.869 64.6109 136.545 64.0203 136.382 63.3039C136.255 62.75 136.247 62.2894 136.358 61.9223C136.464 61.5523 136.613 61.254 136.806 61.0274C136.995 60.7978 137.152 60.6182 137.278 60.4885L137.247 60.3555L135.896 60.664L135.608 59.4011L144.36 57.4034C145.091 57.2365 145.723 57.267 146.257 57.4949C146.794 57.7182 147.233 58.0842 147.574 58.5929C147.919 59.0971 148.168 59.689 148.324 60.3685ZM143.658 61.4799C143.539 60.9555 143.318 60.5397 142.995 60.2326C142.672 59.9255 142.264 59.7292 141.771 59.6437C141.277 59.5582 140.716 59.5871 140.089 59.7304C139.476 59.8703 138.956 60.0861 138.529 60.3778C138.102 60.6695 137.797 61.0266 137.614 61.4492C137.43 61.8718 137.399 62.349 137.521 62.8808C137.647 63.4347 137.893 63.8643 138.258 64.1695C138.622 64.471 139.061 64.6602 139.576 64.737C140.09 64.81 140.635 64.7808 141.211 64.6493C141.802 64.5145 142.304 64.3029 142.716 64.0145C143.123 63.7234 143.415 63.3655 143.59 62.9409C143.76 62.5134 143.783 62.0264 143.658 61.4799Z" fill="#2D2D2D"/>
<path d="M137.75 54.6584H143V55.9993H131.364V54.6584H135.636V54.5447C135.186 54.3402 134.828 54.0334 134.562 53.6243C134.294 53.2114 134.159 52.6622 134.159 51.9766C134.159 51.3819 134.278 50.861 134.517 50.4141C134.752 49.9671 135.114 49.6205 135.602 49.3743C136.087 49.1243 136.705 48.9993 137.455 48.9993H143V50.3402H137.545C136.852 50.3402 136.316 50.5201 135.938 50.88C135.555 51.236 135.364 51.7304 135.364 52.3629C135.364 52.8023 135.456 53.1963 135.642 53.5447C135.828 53.8894 136.098 54.1622 136.455 54.3629C136.811 54.5599 137.242 54.6584 137.75 54.6584Z" fill="#2D2D2D"/>
<path d="M141.745 28.0517L148.208 34.746L147.616 35.9746L138.353 35.0957L138.984 33.7852L146.295 34.6321L146.335 34.5502L141.114 29.3622L141.745 28.0517Z" fill="#2D2D2D"/>
<path d="M152.375 28.177L145.551 22.7356L146.387 21.6872L153.211 27.1286L152.375 28.177ZM144.839 21.2956C144.676 21.5 144.466 21.6207 144.209 21.6578C143.954 21.6919 143.729 21.631 143.533 21.4751C143.338 21.3193 143.228 21.1133 143.205 20.8571C143.184 20.5981 143.255 20.3664 143.418 20.162C143.581 19.9577 143.79 19.8385 144.044 19.8043C144.302 19.7673 144.528 19.8267 144.724 19.9825C144.919 20.1384 145.027 20.3459 145.048 20.605C145.072 20.8611 145.002 21.0913 144.839 21.2956Z" fill="#2D2D2D"/>
<path d="M158.857 21.8625C158.288 22.3159 157.672 22.5726 157.007 22.6325C156.34 22.6895 155.674 22.5524 155.008 22.2213C154.339 21.8872 153.717 21.3588 153.14 20.6362C152.569 19.9195 152.196 19.1996 152.021 18.4765C151.847 17.7533 151.864 17.0733 152.073 16.4365C152.282 15.7997 152.674 15.2522 153.249 14.7941C153.693 14.4398 154.103 14.234 154.479 14.1766C154.855 14.1139 155.186 14.1215 155.471 14.1994C155.756 14.272 155.985 14.3369 156.156 14.3939L156.245 14.3231L153.567 10.9647L154.615 10.1287L161.871 19.2264L160.858 20.0341L160.022 18.9857L159.897 19.0849C159.92 19.2707 159.935 19.515 159.944 19.8179C159.951 20.1179 159.881 20.447 159.736 20.8052C159.588 21.1605 159.295 21.513 158.857 21.8625ZM158.248 20.8074C158.668 20.472 158.936 20.079 159.052 19.6284C159.165 19.1749 159.141 18.6924 158.98 18.1811C158.817 17.6667 158.53 17.1519 158.119 16.6366C157.713 16.1272 157.284 15.7406 156.831 15.4766C156.376 15.2097 155.918 15.0854 155.458 15.1036C154.995 15.1189 154.551 15.2965 154.124 15.6366C153.68 15.9909 153.401 16.4001 153.286 16.8643C153.173 17.3232 153.197 17.8057 153.358 18.3117C153.52 18.8124 153.792 19.3026 154.175 19.7824C154.562 20.2681 154.988 20.6503 155.452 20.9291C155.918 21.2025 156.39 21.3393 156.87 21.3394C157.35 21.3343 157.809 21.1569 158.248 20.8074Z" fill="#2D2D2D"/>
<path d="M166.648 16.9757C165.89 17.3406 165.156 17.4881 164.446 17.4182C163.737 17.3433 163.089 17.0753 162.501 16.6142C161.915 16.1481 161.428 15.5123 161.04 14.7069C160.652 13.9015 160.457 13.121 160.455 12.3654C160.454 11.6047 160.635 10.9246 160.998 10.3252C161.363 9.72068 161.9 9.24751 162.61 8.90566C163.02 8.70844 163.457 8.58194 163.922 8.52617C164.387 8.47039 164.857 8.51718 165.333 8.66656C165.807 8.81252 166.262 9.08949 166.698 9.49749C167.134 9.90549 167.529 10.4764 167.882 11.2101L168.129 11.722L162.067 14.6409L161.565 13.5966L166.397 11.2694C166.183 10.8257 165.904 10.4726 165.559 10.2099C165.217 9.94564 164.836 9.79089 164.415 9.74567C163.997 9.6988 163.57 9.78055 163.133 9.99092C162.652 10.2227 162.293 10.5426 162.056 10.9508C161.822 11.3539 161.702 11.7901 161.696 12.2593C161.691 12.7285 161.793 13.1798 162.001 13.6132L162.337 14.3094C162.623 14.9032 162.967 15.3573 163.371 15.6717C163.776 15.9809 164.215 16.1543 164.687 16.1918C165.158 16.2259 165.637 16.1255 166.125 15.8904C166.443 15.7376 166.708 15.5552 166.921 15.3432C167.136 15.1261 167.294 14.882 167.394 14.6107C167.493 14.336 167.528 14.0375 167.499 13.7152L168.824 13.4807C168.892 13.9358 168.853 14.3833 168.708 14.8233C168.561 15.2599 168.314 15.6646 167.968 16.0372C167.62 16.4065 167.18 16.7193 166.648 16.9757Z" fill="#2D2D2D"/>
<path d="M174.75 14.1678C173.982 14.3431 173.266 14.3141 172.603 14.0808C171.944 13.8467 171.376 13.4381 170.901 12.8549C170.43 12.2709 170.094 11.5395 169.893 10.6605C169.691 9.77425 169.675 8.96392 169.846 8.22956C170.02 7.49435 170.353 6.87821 170.846 6.38112C171.342 5.88319 171.974 5.54656 172.742 5.37125C173.511 5.19593 174.224 5.22532 174.884 5.45943C175.547 5.69269 176.115 6.10318 176.587 6.69088C177.063 7.27773 177.402 8.01431 177.604 8.90061C177.805 9.77952 177.818 10.5847 177.643 11.3162C177.471 12.0469 177.138 12.6612 176.641 13.1591C176.149 13.6562 175.518 13.9924 174.75 14.1678ZM174.482 12.9934C175.066 12.8602 175.512 12.6011 175.82 12.216C176.128 11.8309 176.317 11.374 176.387 10.8452C176.457 10.3164 176.427 9.7677 176.297 9.19899C176.167 8.63028 175.956 8.121 175.663 7.67114C175.37 7.22129 175 6.88794 174.554 6.67109C174.109 6.45425 173.594 6.41241 173.01 6.54559C172.427 6.67877 171.981 6.93975 171.674 7.32854C171.366 7.71733 171.178 8.17796 171.109 8.71042C171.04 9.24288 171.071 9.79346 171.201 10.3622C171.331 10.9309 171.542 11.4383 171.834 11.8845C172.126 12.3306 172.495 12.6603 172.94 12.8734C173.384 13.0866 173.899 13.1266 174.482 12.9934Z" fill="#2D2D2D"/>
<path d="M194.5 51.634C195.167 52.0189 195.167 52.9811 194.5 53.366L178.75 62.4593C178.083 62.8442 177.25 62.3631 177.25 61.5933V43.4067C177.25 42.6369 178.083 42.1558 178.75 42.5407L194.5 51.634Z" fill="white"/>
</svg>
